solid bobby car
facet normal 0.7518398074789512 -0.615552347270296 0.2362884077986952
  outer loop
    vertex 21.215247271798127 1180.9291934333078 -3.524958103184872e-14
    vertex 20.35278168075123 1194.633850160755 38.44610772773564
    vertex 20.35278168075124 1179.87577211698 -2.6084689963568052e-14
  endloop
endfacet
facet normal 0.7518398074789512 -0.615552347270296 0.2362884077986952
  outer loop
    vertex 20.35278168075123 1194.633850160755 38.44610772773564
    vertex 21.215247271798127 1180.9291934333078 -3.524958103184872e-14
    vertex 21.21524727179804 1195.0668935221129 36.82996790126765
  endloop
endfacet
facet normal -0.7518398074790336 -0.6155523472702081 0.2362884077986621
  outer loop
    vertex 6.21064605702043 1194.633850160755 38.4461077277358
    vertex 5.348180465973646 1180.9291934333078 1.431132989893058e-13
    vertex 6.210646057020463 1179.87577211698 1.5227819005758646e-13
  endloop
endfacet
facet normal -0.7518398074790336 -0.6155523472702081 0.2362884077986621
  outer loop
    vertex 5.348180465973646 1180.9291934333078 1.431132989893058e-13
    vertex 6.21064605702043 1194.633850160755 38.4461077277358
    vertex 5.348180465973531 1195.066893522113 36.829967901267125
  endloop
endfacet
facet normal -0.0654031292301646 -0.9315815591411323 0.3576006562565001
  outer loop
    vertex 13.281713868885873 1176.7384610669576 3.806954751439662e-13
    vertex 11.976451946685394 1193.381826396747 43.11872402729635
    vertex 11.976451946685431 1176.8300990060507 2.989164471500771e-13
  endloop
endfacet
facet normal -0.0654031292301646 -0.9315815591411323 0.3576006562565001
  outer loop
    vertex 11.976451946685394 1193.381826396747 43.11872402729635
    vertex 13.281713868885873 1176.7384610669576 3.806954751439662e-13
    vertex 13.28171386888583 1193.3441556181538 43.25931328696712
  endloop
endfacet
facet normal -0.4422886902189626 -0.8373028365538194 0.3214104453861486
  outer loop
    vertex 9.454879545234938 1193.679336309254 42.00840191806568
    vertex 8.28171386888585 1178.1735232470658 2.425171174991192e-13
    vertex 9.454879545234986 1177.5538216435957 9.446887716535457e-14
  endloop
endfacet
facet normal -0.4422886902189626 -0.8373028365538194 0.3214104453861486
  outer loop
    vertex 8.28171386888585 1178.1735232470658 2.425171174991192e-13
    vertex 9.454879545234938 1193.679336309254 42.00840191806568
    vertex 8.281713868885898 1193.9340849660791 41.05766698763388
  endloop
endfacet
facet normal 0.9469301294950582 0.3000895931108891 -0.11519360208368068
  outer loop
    vertex 4.5883814322842165 1184.9548164835523 8.107403637325206e-14
    vertex 4.966798076284348 1196.230887803992 32.48588210157526
    vertex 4.966798076284401 1183.7607260187965 1.071587263368201e-13
  endloop
endfacet
facet normal 0.9469301294950582 0.3000895931108891 -0.11519360208368068
  outer loop
    vertex 4.966798076284348 1196.230887803992 32.48588210157526
    vertex 4.5883814322842165 1184.9548164835523 8.107403637325206e-14
    vertex 4.588381432284176 1196.7217578296963 30.653930225733337
  endloop
endfacet
facet normal 0.44228869021888 0.8373028365538573 -0.3214104453861638
  outer loop
    vertex 8.781713868885737 1179.101162022692 3.764655254201443e-13
    vertex 9.837562977600033 1194.0861475000106 40.490161885073796
    vertex 9.837562977600054 1178.543430579569 8.459899447643692e-15
  endloop
endfacet
facet normal 0.44228869021888 0.8373028365538573 -0.3214104453861638
  outer loop
    vertex 9.837562977600033 1194.0861475000106 40.490161885073796
    vertex 8.781713868885737 1179.101162022692 3.764655254201443e-13
    vertex 8.781713868885758 1194.3154212911534 39.6345004476853
  endloop
endfacet
facet normal 0.6593458151000579 0.7019029281238074 -0.2694352901927768
  outer loop
    vertex 6.9177528382068445 1194.9452099663615 37.28409711377693
    vertex 7.802861007807506 1179.8017428755843 3.7505554217887036e-13
    vertex 6.917752838206882 1180.6331860056148 2.1290746943236625e-13
  endloop
endfacet
facet normal 0.6593458151000579 0.7019029281238074 -0.2694352901927768
  outer loop
    vertex 7.802861007807506 1179.8017428755843 3.7505554217887036e-13
    vertex 6.9177528382068445 1194.9452099663615 37.28409711377693
    vertex 7.802861007807059 1194.603418014532 38.55968204362278
  endloop
endfacet
facet normal 0.0 0.0 -1.0
  outer loop
    vertex 3.2817138688857685 1201.9880125617792 11.000000000000028
    vertex 4.281713868885767 1196.3012976873868 11.000000000000028
    vertex 3.281713868885767 1196.3012976873868 11.000000000000028
  endloop
endfacet
facet normal 0.0 0.0 -1.0
  outer loop
    vertex 4.281713868885767 1196.3012976873868 11.000000000000028
    vertex 3.2817138688857685 1201.9880125617792 11.000000000000028
    vertex 4.2817138688857685 1201.9880125617792 11.000000000000028
  endloop
endfacet
facet normal 4.3700836348193754e-16 0.38268343236525865 -0.923879532511217
  outer loop
    vertex 4.281713868885767 1196.0942424513046 10.972740661031283
    vertex 3.281713868885767 1195.901297687387 10.89282032302758
    vertex 3.281713868885767 1196.0942424513046 10.972740661031283
  endloop
endfacet
facet normal 4.3700836348193754e-16 0.38268343236525865 -0.923879532511217
  outer loop
    vertex 3.281713868885767 1195.901297687387 10.89282032302758
    vertex 4.281713868885767 1196.0942424513046 10.972740661031283
    vertex 4.281713868885767 1195.901297687387 10.89282032302758
  endloop
endfacet
facet normal 4.836423059434185e-16 0.1305261922200425 -0.9914448613738117
  outer loop
    vertex 4.281713868885767 1196.3012976873868 11.000000000000028
    vertex 3.281713868885767 1196.0942424513046 10.972740661031283
    vertex 3.281713868885767 1196.3012976873868 11.000000000000028
  endloop
endfacet
facet normal 4.836423059434185e-16 0.1305261922200425 -0.9914448613738117
  outer loop
    vertex 3.281713868885767 1196.0942424513046 10.972740661031283
    vertex 4.281713868885767 1196.3012976873868 11.000000000000028
    vertex 4.281713868885767 1196.0942424513046 10.972740661031283
  endloop
endfacet
facet normal 0.06540312923007527 -0.9315815591411376 0.3576006562565025
  outer loop
    vertex 14.586975791086273 1193.381826396747 43.11872402729652
    vertex 13.281713868885873 1176.7384610669576 3.806954751439662e-13
    vertex 14.58697579108631 1176.8300990060504 2.5943691639440655e-13
  endloop
endfacet
facet normal 0.06540312923007527 -0.9315815591411376 0.3576006562565025
  outer loop
    vertex 13.281713868885873 1176.7384610669576 3.806954751439662e-13
    vertex 14.586975791086273 1193.381826396747 43.11872402729652
    vertex 13.28171386888583 1193.3441556181538 43.25931328696712
  endloop
endfacet
facet normal 0.5555702330196937 -0.7762437552728155 0.2979720600700685
  outer loop
    vertex 19.369328158972944 1194.2540813253888 39.86342431645318
    vertex 18.281713868885788 1178.173523247066 3.130162795628166e-13
    vertex 19.369328158972998 1178.9519464169462 1.424083073686688e-13
  endloop
endfacet
facet normal 0.5555702330196937 -0.7762437552728155 0.2979720600700685
  outer loop
    vertex 18.281713868885788 1178.173523247066 3.130162795628166e-13
    vertex 19.369328158972944 1194.2540813253888 39.86342431645318
    vertex 18.281713868885596 1193.9340849660794 41.05766698763371
  endloop
endfacet
facet normal 0.9807852804032575 -0.18213250603316652 0.06991411867700568
  outer loop
    vertex 23.196162482623922 1186.0517862299776 4.2299497238218464e-14
    vertex 22.940972131776572 1196.607792231127 31.079255629909706
    vertex 22.94097213177671 1184.6775837591329 8.882894420025876e-14
  endloop
endfacet
facet normal 0.9807852804032575 -0.18213250603316652 0.06991411867700568
  outer loop
    vertex 22.940972131776572 1196.607792231127 31.079255629909706
    vertex 23.196162482623922 1186.0517862299776 4.2299497238218464e-14
    vertex 23.196162482623848 1197.172703200686 28.97097918976128
  endloop
endfacet
facet normal -0.5555702330196332 -0.776243755272854 0.297972060070081
  outer loop
    vertex 8.281713868885898 1193.9340849660791 41.05766698763388
    vertex 7.194099578798647 1178.951946416946 2.7776669853096787e-13
    vertex 8.28171386888585 1178.1735232470658 2.425171174991192e-13
  endloop
endfacet
facet normal -0.5555702330196332 -0.776243755272854 0.297972060070081
  outer loop
    vertex 7.194099578798647 1178.951946416946 2.7776669853096787e-13
    vertex 8.281713868885898 1193.9340849660791 41.05766698763388
    vertex 7.194099578798537 1194.2540813253886 39.86342431645368
  endloop
endfacet
facet normal -0.659345815100158 -0.701902928123726 0.26943529019274365
  outer loop
    vertex 7.194099578798647 1178.951946416946 2.7776669853096787e-13
    vertex 6.21064605702043 1194.633850160755 38.4461077277358
    vertex 6.210646057020463 1179.87577211698 1.5227819005758646e-13
  endloop
endfacet
facet normal -0.659345815100158 -0.701902928123726 0.26943529019274365
  outer loop
    vertex 6.21064605702043 1194.633850160755 38.4461077277358
    vertex 7.194099578798647 1178.951946416946 2.7776669853096787e-13
    vertex 7.194099578798537 1194.2540813253886 39.86342431645368
  endloop
endfacet
facet normal -0.9807852804032346 -0.18213250603327455 0.06991411867704377
  outer loop
    vertex 3.622455605995205 1196.607792231127 31.079255629909692
    vertex 3.367265255147813 1186.0517862299776 2.6084689963568052e-14
    vertex 3.622455605995178 1184.6775837591329 8.459899447643693e-14
  endloop
endfacet
facet normal -0.9807852804032346 -0.18213250603327455 0.06991411867704377
  outer loop
    vertex 3.367265255147813 1186.0517862299776 2.6084689963568052e-14
    vertex 3.622455605995205 1196.607792231127 31.079255629909692
    vertex 3.36726525514779 1197.172703200686 28.97097918976127
  endloop
endfacet
facet normal 1.0 1.9516947216423424e-15 9.277082396533684e-17
  outer loop
    vertex 23.281713868885912 1203.3825394079065 2.586631360666381e-14
    vertex 23.281713868885927 1197.747448216821 26.826001588149122
    vertex 23.281713868885948 1187.4499110033278 1.755429135386066e-13
  endloop
endfacet
facet normal 1.0 1.9516947216423424e-15 9.277082396533684e-17
  outer loop
    vertex 23.281713868885927 1197.747448216821 26.826001588149122
    vertex 23.281713868885912 1203.3825394079065 2.586631360666381e-14
    vertex 23.281713868885912 1204.533529889875 1.5000000000000173
  endloop
endfacet
facet normal 1.0 1.9516947216423424e-15 9.277082396533684e-17
  outer loop
    vertex 23.281713868885912 1204.533529889875 1.5000000000000173
    vertex 23.281713868885912 1203.3825394079065 2.586631360666381e-14
    vertex 23.281713868885912 1203.7707679755604 0.05111126056642019
  endloop
endfacet
facet normal 1.0 1.9516947216423424e-15 9.277082396533684e-17
  outer loop
    vertex 23.281713868885912 1204.533529889875 1.5000000000000173
    vertex 23.281713868885912 1203.7707679755604 0.05111126056642019
    vertex 23.281713868885912 1204.1051489659208 0.20096189432336212
  endloop
endfacet
facet normal 1.0 1.9516947216423424e-15 9.277082396533684e-17
  outer loop
    vertex 23.281713868885912 1204.533529889875 1.5000000000000173
    vertex 23.281713868885912 1204.1051489659208 0.20096189432336212
    vertex 23.281713868885912 1204.3628948670855 0.43933982822019696
  endloop
endfacet
facet normal 1.0 1.9516947216423424e-15 9.277082396533684e-17
  outer loop
    vertex 23.281713868885912 1204.533529889875 1.5000000000000173
    vertex 23.281713868885912 1204.3628948670855 0.43933982822019696
    vertex 23.281713868885912 1204.5264407218351 0.750000000000017
  endloop
endfacet
facet normal 1.0 1.9516947216423424e-15 9.277082396533684e-17
  outer loop
    vertex 23.281713868885912 1204.533529889875 1.5000000000000173
    vertex 23.281713868885912 1204.5264407218351 0.750000000000017
    vertex 23.281713868885912 1204.5846411504413 1.1117714323462353
  endloop
endfacet
facet normal -0.9978589232385964 -0.06105908128103056 0.023438385316090854
  outer loop
    vertex 3.36726525514779 1197.172703200686 28.97097918976127
    vertex 3.2817138688857757 1187.4499110033275 1.5791812302268225e-13
    vertex 3.367265255147813 1186.0517862299776 2.6084689963568052e-14
  endloop
endfacet
facet normal -0.9978589232385964 -0.06105908128103056 0.023438385316090854
  outer loop
    vertex 3.2817138688857757 1187.4499110033275 1.5791812302268225e-13
    vertex 3.36726525514779 1197.172703200686 28.97097918976127
    vertex 3.2817138688857543 1197.747448216821 26.82600158814928
  endloop
endfacet
facet normal -1.0 5.512007960733945e-15 -3.164068780588197e-15
  outer loop
    vertex 22.281713868885657 1197.747448216821 26.826001588149122
    vertex 22.28171386888577 1203.3825394079065 2.530000690715453e-14
    vertex 22.281713868885685 1187.4499110033278 1.7765788840051753e-13
  endloop
endfacet
facet normal -1.0 5.512007960733945e-15 -3.164068780588197e-15
  outer loop
    vertex 22.28171386888577 1203.3825394079065 2.530000690715453e-14
    vertex 22.281713868885657 1197.747448216821 26.826001588149122
    vertex 22.281713868885774 1204.533529889875 1.5000000000000162
  endloop
endfacet
facet normal -1.0 5.512007960733945e-15 -3.164068780588197e-15
  outer loop
    vertex 22.28171386888577 1203.3825394079065 2.530000690715453e-14
    vertex 22.281713868885774 1204.533529889875 1.5000000000000162
    vertex 22.281713868885774 1203.7707679755604 0.05111126056641966
  endloop
endfacet
facet normal -1.0 5.512007960733945e-15 -3.164068780588197e-15
  outer loop
    vertex 22.281713868885774 1203.7707679755604 0.05111126056641966
    vertex 22.281713868885774 1204.533529889875 1.5000000000000162
    vertex 22.281713868885774 1204.1051489659208 0.2009618943233614
  endloop
endfacet
facet normal -1.0 5.512007960733945e-15 -3.164068780588197e-15
  outer loop
    vertex 22.281713868885774 1204.1051489659208 0.2009618943233614
    vertex 22.281713868885774 1204.533529889875 1.5000000000000162
    vertex 22.281713868885774 1204.3628948670855 0.43933982822019607
  endloop
endfacet
facet normal -1.0 5.512007960733945e-15 -3.164068780588197e-15
  outer loop
    vertex 22.281713868885774 1204.3628948670855 0.43933982822019607
    vertex 22.281713868885774 1204.533529889875 1.5000000000000162
    vertex 22.281713868885774 1204.5264407218351 0.750000000000016
  endloop
endfacet
facet normal -1.0 5.512007960733945e-15 -3.164068780588197e-15
  outer loop
    vertex 22.281713868885774 1204.5264407218351 0.750000000000016
    vertex 22.281713868885774 1204.533529889875 1.5000000000000162
    vertex 22.281713868885774 1204.5846411504413 1.1117714323462342
  endloop
endfacet
facet normal 0.8314696123025402 -0.5186694950915974 0.19909856523564162
  outer loop
    vertex 21.94196790673025 1182.0941860351427 1.7977286326242847e-13
    vertex 21.21524727179804 1195.0668935221129 36.82996790126765
    vertex 21.215247271798127 1180.9291934333078 -3.524958103184872e-14
  endloop
endfacet
facet normal 0.8314696123025402 -0.5186694950915974 0.19909856523564162
  outer loop
    vertex 21.21524727179804 1195.0668935221129 36.82996790126765
    vertex 21.94196790673025 1182.0941860351427 1.7977286326242847e-13
    vertex 21.941967906730167 1195.5458019174873 35.04265743755838
  endloop
endfacet
facet normal 0.9469301294951029 -0.3000895931107655 0.11519360208363655
  outer loop
    vertex 22.94097213177671 1184.6775837591329 8.882894420025876e-14
    vertex 22.520509193998752 1196.0623810914553 33.114757714178516
    vertex 22.520509193998883 1183.3508165760707 1.268984917146554e-13
  endloop
endfacet
facet normal 0.9469301294951029 -0.3000895931107655 0.11519360208363655
  outer loop
    vertex 22.520509193998752 1196.0623810914553 33.114757714178516
    vertex 22.94097213177671 1184.6775837591329 8.882894420025876e-14
    vertex 22.940972131776572 1196.607792231127 31.079255629909706
  endloop
endfacet
facet normal 0.8968727415326534 -0.41291206404960984 0.1585020910208865
  outer loop
    vertex 22.520509193998883 1183.3508165760707 1.268984917146554e-13
    vertex 21.941967906730167 1195.5458019174873 35.04265743755838
    vertex 21.94196790673025 1182.0941860351427 1.7977286326242847e-13
  endloop
endfacet
facet normal 0.8968727415326534 -0.41291206404960984 0.1585020910208865
  outer loop
    vertex 21.941967906730167 1195.5458019174873 35.04265743755838
    vertex 22.520509193998883 1183.3508165760707 1.268984917146554e-13
    vertex 22.520509193998752 1196.0623810914553 33.114757714178516
  endloop
endfacet
facet normal -0.32143946530318585 -0.8840354341570837 0.33934940886982323
  outer loop
    vertex 10.693523417860659 1177.103444872785 1.9457768729580493e-13
    vertex 9.454879545234938 1193.679336309254 42.00840191806568
    vertex 9.454879545234986 1177.5538216435957 9.446887716535457e-14
  endloop
endfacet
facet normal -0.32143946530318585 -0.8840354341570837 0.33934940886982323
  outer loop
    vertex 9.454879545234938 1193.679336309254 42.00840191806568
    vertex 10.693523417860659 1177.103444872785 1.9457768729580493e-13
    vertex 10.693523417860611 1193.4941941750608 42.69936176949605
  endloop
endfacet
facet normal 0.3214394653031862 -0.8840354341570847 0.33934940886982
  outer loop
    vertex 17.108548192536638 1193.679336309254 42.00840191806533
    vertex 15.869904319910928 1177.1034448727855 -9.728884364790246e-14
    vertex 17.108548192536617 1177.5538216435962 -1.9316770405453097e-13
  endloop
endfacet
facet normal 0.3214394653031862 -0.8840354341570847 0.33934940886982
  outer loop
    vertex 15.869904319910928 1177.1034448727855 -9.728884364790246e-14
    vertex 17.108548192536638 1193.679336309254 42.00840191806533
    vertex 15.86990431991096 1193.494194175061 42.6993617694957
  endloop
endfacet
facet normal 0.19509032201629184 -0.9156419403809954 0.35148200988230555
  outer loop
    vertex 15.86990431991096 1193.494194175061 42.6993617694957
    vertex 14.58697579108631 1176.8300990060504 2.5943691639440655e-13
    vertex 15.869904319910928 1177.1034448727855 -9.728884364790246e-14
  endloop
endfacet
facet normal 0.19509032201629184 -0.9156419403809954 0.35148200988230555
  outer loop
    vertex 14.58697579108631 1176.8300990060504 2.5943691639440655e-13
    vertex 15.86990431991096 1193.494194175061 42.6993617694957
    vertex 14.586975791086273 1193.381826396747 43.11872402729652
  endloop
endfacet
facet normal -0.831469612302496 -0.5186694950916587 0.19909856523566616
  outer loop
    vertex 5.348180465973531 1195.066893522113 36.829967901267125
    vertex 4.621459831041522 1182.0941860351427 1.734279386766957e-13
    vertex 5.348180465973646 1180.9291934333078 1.431132989893058e-13
  endloop
endfacet
facet normal -0.831469612302496 -0.5186694950916587 0.19909856523566616
  outer loop
    vertex 4.621459831041522 1182.0941860351427 1.734279386766957e-13
    vertex 5.348180465973531 1195.066893522113 36.829967901267125
    vertex 4.6214598310414985 1195.5458019174876 35.04265743755803
  endloop
endfacet
facet normal -0.9469301294950825 -0.30008959311082306 0.11519360208365408
  outer loop
    vertex 4.042918543772958 1196.0623810914553 33.11475771417798
    vertex 3.622455605995178 1184.6775837591329 8.459899447643693e-14
    vertex 4.042918543773084 1183.3508165760707 -5.780931289223189e-14
  endloop
endfacet
facet normal -0.9469301294950825 -0.30008959311082306 0.11519360208365408
  outer loop
    vertex 3.622455605995178 1184.6775837591329 8.459899447643693e-14
    vertex 4.042918543772958 1196.0623810914553 33.11475771417798
    vertex 3.622455605995205 1196.607792231127 31.079255629909692
  endloop
endfacet
facet normal 0.9978589232385962 -0.06105908128103464 0.02343838531609499
  outer loop
    vertex 23.281713868885948 1187.4499110033278 1.755429135386066e-13
    vertex 23.196162482623848 1197.172703200686 28.97097918976128
    vertex 23.196162482623922 1186.0517862299776 4.2299497238218464e-14
  endloop
endfacet
facet normal 0.9978589232385962 -0.06105908128103464 0.02343838531609499
  outer loop
    vertex 23.196162482623848 1197.172703200686 28.97097918976128
    vertex 23.281713868885948 1187.4499110033278 1.755429135386066e-13
    vertex 23.281713868885927 1197.747448216821 26.826001588149122
  endloop
endfacet
facet normal -0.1950903220159668 -0.9156419403810555 0.3514820098823298
  outer loop
    vertex 11.976451946685431 1176.8300990060507 2.989164471500771e-13
    vertex 10.693523417860611 1193.4941941750608 42.69936176949605
    vertex 10.693523417860659 1177.103444872785 1.9457768729580493e-13
  endloop
endfacet
facet normal -0.1950903220159668 -0.9156419403810555 0.3514820098823298
  outer loop
    vertex 10.693523417860611 1193.4941941750608 42.69936176949605
    vertex 11.976451946685431 1176.8300990060507 2.989164471500771e-13
    vertex 11.976451946685394 1193.381826396747 43.11872402729635
  endloop
endfacet
facet normal 0.442288690218878 -0.8373028365538592 0.321410445386162
  outer loop
    vertex 18.281713868885788 1178.173523247066 3.130162795628166e-13
    vertex 17.108548192536638 1193.679336309254 42.00840191806533
    vertex 17.108548192536617 1177.5538216435962 -1.9316770405453097e-13
  endloop
endfacet
facet normal 0.442288690218878 -0.8373028365538592 0.321410445386162
  outer loop
    vertex 17.108548192536638 1193.679336309254 42.00840191806533
    vertex 18.281713868885788 1178.173523247066 3.130162795628166e-13
    vertex 18.281713868885596 1193.9340849660794 41.05766698763371
  endloop
endfacet
facet normal 1.0 7.33771839709895e-15 -2.1401099617942937e-15
  outer loop
    vertex 4.281713868885966 1187.4499110033275 1.5791812302268225e-13
    vertex 4.2817138688857685 1195.5285570263554 9.992944763918018
    vertex 4.2817138688857685 1195.5012976873868 10.200000000000033
  endloop
endfacet
facet normal 1.0 7.33771839709895e-15 -2.1401099617942937e-15
  outer loop
    vertex 4.2817138688857685 1195.5285570263554 9.992944763918018
    vertex 4.281713868885966 1187.4499110033275 1.5791812302268225e-13
    vertex 4.281713868885774 1198.206158505856 6.049168286731224e-14
  endloop
endfacet
facet normal 1.0 7.33771839709895e-15 -2.1401099617942937e-15
  outer loop
    vertex 4.281713868885966 1187.4499110033275 1.5791812302268225e-13
    vertex 4.2817138688857685 1195.5285570263554 10.40705523608205
    vertex 4.28171386888595 1197.7474482168209 26.826001588149456
  endloop
endfacet
facet normal 1.0 7.33771839709895e-15 -2.1401099617942937e-15
  outer loop
    vertex 4.2817138688857685 1195.5285570263554 10.40705523608205
    vertex 4.281713868885966 1187.4499110033275 1.5791812302268225e-13
    vertex 4.2817138688857685 1195.5012976873868 10.200000000000033
  endloop
endfacet
facet normal 1.0 7.33771839709895e-15 -2.1401099617942937e-15
  outer loop
    vertex 4.28171386888595 1197.7474482168209 26.826001588149456
    vertex 4.2817138688857685 1195.5285570263554 10.40705523608205
    vertex 4.281713868885767 1195.6084773643593 10.600000000000032
  endloop
endfacet
facet normal 1.0 7.33771839709895e-15 -2.1401099617942937e-15
  outer loop
    vertex 4.28171386888595 1197.7474482168209 26.826001588149456
    vertex 4.281713868885767 1195.6084773643593 10.600000000000032
    vertex 4.281713868885767 1195.7356122624376 10.765685424949268
  endloop
endfacet
facet normal 1.0 7.33771839709895e-15 -2.1401099617942937e-15
  outer loop
    vertex 4.28171386888595 1197.7474482168209 26.826001588149456
    vertex 4.281713868885767 1195.7356122624376 10.765685424949268
    vertex 4.281713868885767 1195.901297687387 10.89282032302758
  endloop
endfacet
facet normal 1.0 7.33771839709895e-15 -2.1401099617942937e-15
  outer loop
    vertex 4.28171386888595 1197.7474482168209 26.826001588149456
    vertex 4.281713868885767 1195.901297687387 10.89282032302758
    vertex 4.281713868885767 1196.0942424513046 10.972740661031283
  endloop
endfacet
facet normal 1.0 7.33771839709895e-15 -2.1401099617942937e-15
  outer loop
    vertex 4.28171386888595 1197.7474482168209 26.826001588149456
    vertex 4.281713868885767 1196.0942424513046 10.972740661031283
    vertex 4.281713868885767 1196.3012976873868 11.000000000000028
  endloop
endfacet
facet normal 1.0 7.33771839709895e-15 -2.1401099617942937e-15
  outer loop
    vertex 4.28171386888595 1197.7474482168209 26.826001588149456
    vertex 4.281713868885767 1196.3012976873868 11.000000000000028
    vertex 4.2817138688857685 1201.9880125617792 11.000000000000028
  endloop
endfacet
facet normal 0.6593458151000078 -0.7019029281238479 0.2694352901927936
  outer loop
    vertex 20.35278168075123 1194.633850160755 38.44610772773564
    vertex 19.369328158972998 1178.9519464169462 1.424083073686688e-13
    vertex 20.35278168075124 1179.87577211698 -2.6084689963568052e-14
  endloop
endfacet
facet normal 0.6593458151000078 -0.7019029281238479 0.2694352901927936
  outer loop
    vertex 19.369328158972998 1178.9519464169462 1.424083073686688e-13
    vertex 20.35278168075123 1194.633850160755 38.44610772773564
    vertex 19.369328158972944 1194.2540813253888 39.86342431645318
  endloop
endfacet
facet normal -0.8968727415326994 -0.4129120640495236 0.15850209102085125
  outer loop
    vertex 4.6214598310414985 1195.5458019174876 35.04265743755803
    vertex 4.042918543773084 1183.3508165760707 -5.780931289223189e-14
    vertex 4.621459831041522 1182.0941860351427 1.734279386766957e-13
  endloop
endfacet
facet normal -0.8968727415326994 -0.4129120640495236 0.15850209102085125
  outer loop
    vertex 4.042918543773084 1183.3508165760707 -5.780931289223189e-14
    vertex 4.6214598310414985 1195.5458019174876 35.04265743755803
    vertex 4.042918543772958 1196.0623810914553 33.11475771417798
  endloop
endfacet
facet normal -0.751839807479096 0.6155523472701413 -0.23628840779863758
  outer loop
    vertex 19.64567489956482 1194.9452099663615 37.284097113777285
    vertex 20.421893931506975 1181.5812651903095 -6.415423747796467e-14
    vertex 19.64567489956489 1180.6331860056148 9.86988268891764e-15
  endloop
endfacet
facet normal -0.751839807479096 0.6155523472701413 -0.23628840779863758
  outer loop
    vertex 20.421893931506975 1181.5812651903095 -6.415423747796467e-14
    vertex 19.64567489956482 1194.9452099663615 37.284097113777285
    vertex 20.421893931506904 1195.3349489915836 35.829571269955736
  endloop
endfacet
facet normal 0.9807852804032593 0.18213250603315928 -0.06991411867699907
  outer loop
    vertex 4.358710116521687 1186.1915987073126 4.159450561758149e-14
    vertex 4.588381432284176 1196.7217578296963 30.653930225733337
    vertex 4.5883814322842165 1184.9548164835523 8.107403637325206e-14
  endloop
endfacet
facet normal 0.9807852804032593 0.18213250603315928 -0.06991411867699907
  outer loop
    vertex 4.588381432284176 1196.7217578296963 30.653930225733337
    vertex 4.358710116521687 1186.1915987073126 4.159450561758149e-14
    vertex 4.3587101165216735 1197.2301777022997 28.756481429600125
  endloop
endfacet
facet normal 0.1950903220161205 0.9156419403810265 -0.3514820098823198
  outer loop
    vertex 10.95234246296323 1193.919519579237 41.11202575136116
    vertex 12.106978138905447 1177.8920802057783 2.5943691639440655e-13
    vertex 10.952342462963259 1178.1380914858394 1.1561862578446379e-13
  endloop
endfacet
facet normal 0.1950903220161205 0.9156419403810265 -0.3514820098823198
  outer loop
    vertex 12.106978138905447 1177.8920802057783 2.5943691639440655e-13
    vertex 10.95234246296323 1193.919519579237 41.11202575136116
    vertex 12.106978138905403 1193.8183885787546 41.489451783381696
  endloop
endfacet
facet normal 0.7518398074790118 0.6155523472702308 -0.23628840779867255
  outer loop
    vertex 6.141533806264805 1181.5812651903095 1.346533995416621e-13
    vertex 6.9177528382068445 1194.9452099663615 37.28409711377693
    vertex 6.917752838206882 1180.6331860056148 2.1290746943236625e-13
  endloop
endfacet
facet normal 0.7518398074790118 0.6155523472702308 -0.23628840779867255
  outer loop
    vertex 6.9177528382068445 1194.9452099663615 37.28409711377693
    vertex 6.141533806264805 1181.5812651903095 1.346533995416621e-13
    vertex 6.141533806264671 1195.3349489915838 35.82957126995537
  endloop
endfacet
facet normal 0.8314696123025741 0.5186694950915508 -0.19909856523562172
  outer loop
    vertex 5.4874852348260506 1182.629758531961 -1.0010881013045036e-13
    vertex 6.141533806264671 1195.3349489915838 35.82957126995537
    vertex 6.141533806264805 1181.5812651903095 1.346533995416621e-13
  endloop
endfacet
facet normal 0.8314696123025741 0.5186694950915508 -0.19909856523562172
  outer loop
    vertex 6.141533806264671 1195.3349489915838 35.82957126995537
    vertex 5.4874852348260506 1182.629758531961 -1.0010881013045036e-13
    vertex 5.487485234825978 1195.7659665474207 34.22099185261748
  endloop
endfacet
facet normal 0.9978589232386021 0.06105908128094859 -0.023438385316059435
  outer loop
    vertex 4.281713868885966 1187.4499110033275 1.5791812302268225e-13
    vertex 4.3587101165216735 1197.2301777022997 28.756481429600125
    vertex 4.358710116521687 1186.1915987073126 4.159450561758149e-14
  endloop
endfacet
facet normal 0.9978589232386021 0.06105908128094859 -0.023438385316059435
  outer loop
    vertex 4.3587101165216735 1197.2301777022997 28.756481429600125
    vertex 4.281713868885966 1187.4499110033275 1.5791812302268225e-13
    vertex 4.28171386888595 1197.7474482168209 26.826001588149456
  endloop
endfacet
facet normal -0.980785280403245 0.18213250603322503 -0.06991411867702647
  outer loop
    vertex 21.97504630548738 1196.7217578296963 30.65393022573335
    vertex 22.204717621250023 1186.1915987073126 6.485922909860164e-14
    vertex 21.97504630548741 1184.9548164835523 1.0363376823363523e-13
  endloop
endfacet
facet normal -0.980785280403245 0.18213250603322503 -0.06991411867702647
  outer loop
    vertex 22.204717621250023 1186.1915987073126 6.485922909860164e-14
    vertex 21.97504630548738 1196.7217578296963 30.65393022573335
    vertex 22.204717621250005 1197.2301777023 28.756481429599788
  endloop
endfacet
facet normal 0.3214394653031755 0.8840354341570866 -0.33934940886982545
  outer loop
    vertex 9.837562977600033 1194.0861475000106 40.490161885073796
    vertex 10.952342462963259 1178.1380914858394 1.1561862578446379e-13
    vertex 9.837562977600054 1178.543430579569 8.459899447643692e-15
  endloop
endfacet
facet normal 0.3214394653031755 0.8840354341570866 -0.33934940886982545
  outer loop
    vertex 10.952342462963259 1178.1380914858394 1.1561862578446379e-13
    vertex 9.837562977600033 1194.0861475000106 40.490161885073796
    vertex 10.95234246296323 1193.919519579237 41.11202575136116
  endloop
endfacet
facet normal -0.5555702330196735 0.7762437552728274 -0.2979720600700756
  outer loop
    vertex 17.78171386888596 1179.101162022692 3.9479530755670567e-13
    vertex 18.760566729964243 1194.603418014532 38.559682043622956
    vertex 18.760566729964307 1179.8017428755843 3.6166070138676784e-13
  endloop
endfacet
facet normal -0.5555702330196735 0.7762437552728274 -0.2979720600700756
  outer loop
    vertex 18.760566729964243 1194.603418014532 38.559682043622956
    vertex 17.78171386888596 1179.101162022692 3.9479530755670567e-13
    vertex 17.78171386888589 1194.3154212911534 39.634500447685134
  endloop
endfacet
facet normal -0.9469301294951534 0.30008959311062644 -0.1151936020835817
  outer loop
    vertex 21.596629661487498 1196.230887803992 32.48588210157544
    vertex 21.97504630548741 1184.9548164835523 1.0363376823363523e-13
    vertex 21.596629661487544 1183.7607260187965 1.184385922670117e-13
  endloop
endfacet
facet normal -0.9469301294951534 0.30008959311062644 -0.1151936020835817
  outer loop
    vertex 21.97504630548741 1184.9548164835523 1.0363376823363523e-13
    vertex 21.596629661487498 1196.230887803992 32.48588210157544
    vertex 21.97504630548738 1196.7217578296963 30.65393022573335
  endloop
endfacet
facet normal 0.5555702330197188 0.7762437552728005 -0.297972060070061
  outer loop
    vertex 7.802861007807059 1194.603418014532 38.55968204362278
    vertex 8.781713868885737 1179.101162022692 3.764655254201443e-13
    vertex 7.802861007807506 1179.8017428755843 3.7505554217887036e-13
  endloop
endfacet
facet normal 0.5555702330197188 0.7762437552728005 -0.297972060070061
  outer loop
    vertex 8.781713868885737 1179.101162022692 3.764655254201443e-13
    vertex 7.802861007807059 1194.603418014532 38.55968204362278
    vertex 8.781713868885758 1194.3154212911534 39.6345004476853
  endloop
endfacet
facet normal -1.369514498104323e-16 0.9914448613738339 0.1305261922198745
  outer loop
    vertex 22.281713868885774 1204.533529889875 1.5000000000000162
    vertex 23.281713868885912 1204.5846411504413 1.1117714323462353
    vertex 22.281713868885774 1204.5846411504413 1.1117714323462342
  endloop
endfacet
facet normal -1.369514498104323e-16 0.9914448613738339 0.1305261922198745
  outer loop
    vertex 23.281713868885912 1204.5846411504413 1.1117714323462353
    vertex 22.281713868885774 1204.533529889875 1.5000000000000162
    vertex 23.281713868885912 1204.533529889875 1.5000000000000173
  endloop
endfacet
facet normal 5.665064387087468e-16 0.4089552486580515 -0.9125544392500821
  outer loop
    vertex 23.281713868885912 1204.1051489659208 0.20096189432336212
    vertex 22.281713868885774 1203.7707679755604 0.05111126056641966
    vertex 22.281713868885774 1204.1051489659208 0.2009618943233614
  endloop
endfacet
facet normal 5.665064387087468e-16 0.4089552486580515 -0.9125544392500821
  outer loop
    vertex 22.281713868885774 1203.7707679755604 0.05111126056641966
    vertex 23.281713868885912 1204.1051489659208 0.20096189432336212
    vertex 23.281713868885912 1203.7707679755604 0.05111126056642019
  endloop
endfacet
facet normal 5.402730169643129e-16 0.13052619222000708 -0.9914448613738164
  outer loop
    vertex 22.281713868885774 1203.7707679755604 0.05111126056641966
    vertex 23.281713868885912 1203.3825394079065 2.586631360666381e-14
    vertex 22.28171386888577 1203.3825394079065 2.530000690715453e-14
  endloop
endfacet
facet normal 5.402730169643129e-16 0.13052619222000708 -0.9914448613738164
  outer loop
    vertex 23.281713868885912 1203.3825394079065 2.586631360666381e-14
    vertex 22.281713868885774 1203.7707679755604 0.05111126056641966
    vertex 23.281713868885912 1203.7707679755604 0.05111126056642019
  endloop
endfacet
facet normal -1.2333270194083847e-15 -6.2754286221657235e-15 -1.0
  outer loop
    vertex 4.281713868885774 1198.206158505856 6.049168286731224e-14
    vertex 3.2817138688857757 1187.4499110033275 1.5791812302268225e-13
    vertex 3.2817138688857743 1198.206158505856 5.999697097325106e-14
  endloop
endfacet
facet normal -1.2333270194083847e-15 -6.2754286221657235e-15 -1.0
  outer loop
    vertex 3.2817138688857757 1187.4499110033275 1.5791812302268225e-13
    vertex 4.281713868885774 1198.206158505856 6.049168286731224e-14
    vertex 3.367265255147813 1186.0517862299776 2.6084689963568052e-14
  endloop
endfacet
facet normal -1.2333270194083847e-15 -6.2754286221657235e-15 -1.0
  outer loop
    vertex 3.367265255147813 1186.0517862299776 2.6084689963568052e-14
    vertex 4.281713868885774 1198.206158505856 6.049168286731224e-14
    vertex 3.622455605995178 1184.6775837591329 8.459899447643693e-14
  endloop
endfacet
facet normal -1.2333270194083847e-15 -6.2754286221657235e-15 -1.0
  outer loop
    vertex 3.622455605995178 1184.6775837591329 8.459899447643693e-14
    vertex 4.281713868885774 1198.206158505856 6.049168286731224e-14
    vertex 4.042918543773084 1183.3508165760707 -5.780931289223189e-14
  endloop
endfacet
facet normal -1.2333270194083847e-15 -6.2754286221657235e-15 -1.0
  outer loop
    vertex 4.042918543773084 1183.3508165760707 -5.780931289223189e-14
    vertex 4.281713868885774 1198.206158505856 6.049168286731224e-14
    vertex 4.281713868885966 1187.4499110033275 1.5791812302268225e-13
  endloop
endfacet
facet normal -1.2333270194083847e-15 -6.2754286221657235e-15 -1.0
  outer loop
    vertex 4.042918543773084 1183.3508165760707 -5.780931289223189e-14
    vertex 4.281713868885966 1187.4499110033275 1.5791812302268225e-13
    vertex 4.358710116521687 1186.1915987073126 4.159450561758149e-14
  endloop
endfacet
facet normal -1.2333270194083847e-15 -6.2754286221657235e-15 -1.0
  outer loop
    vertex 4.042918543773084 1183.3508165760707 -5.780931289223189e-14
    vertex 4.358710116521687 1186.1915987073126 4.159450561758149e-14
    vertex 4.621459831041522 1182.0941860351427 1.734279386766957e-13
  endloop
endfacet
facet normal -1.2333270194083847e-15 -6.2754286221657235e-15 -1.0
  outer loop
    vertex 4.621459831041522 1182.0941860351427 1.734279386766957e-13
    vertex 4.358710116521687 1186.1915987073126 4.159450561758149e-14
    vertex 4.5883814322842165 1184.9548164835523 8.107403637325206e-14
  endloop
endfacet
facet normal -1.2333270194083847e-15 -6.2754286221657235e-15 -1.0
  outer loop
    vertex 4.621459831041522 1182.0941860351427 1.734279386766957e-13
    vertex 4.5883814322842165 1184.9548164835523 8.107403637325206e-14
    vertex 4.966798076284401 1183.7607260187965 1.071587263368201e-13
  endloop
endfacet
facet normal -1.2333270194083847e-15 -6.2754286221657235e-15 -1.0
  outer loop
    vertex 4.621459831041522 1182.0941860351427 1.734279386766957e-13
    vertex 4.966798076284401 1183.7607260187965 1.071587263368201e-13
    vertex 5.348180465973646 1180.9291934333078 1.431132989893058e-13
  endloop
endfacet
facet normal -1.2333270194083847e-15 -6.2754286221657235e-15 -1.0
  outer loop
    vertex 5.348180465973646 1180.9291934333078 1.431132989893058e-13
    vertex 4.966798076284401 1183.7607260187965 1.071587263368201e-13
    vertex 5.4874852348260506 1182.629758531961 -1.0010881013045036e-13
  endloop
endfacet
facet normal -1.2333270194083847e-15 -6.2754286221657235e-15 -1.0
  outer loop
    vertex 5.348180465973646 1180.9291934333078 1.431132989893058e-13
    vertex 5.4874852348260506 1182.629758531961 -1.0010881013045036e-13
    vertex 6.210646057020463 1179.87577211698 1.5227819005758646e-13
  endloop
endfacet
facet normal -1.2333270194083847e-15 -6.2754286221657235e-15 -1.0
  outer loop
    vertex 6.210646057020463 1179.87577211698 1.5227819005758646e-13
    vertex 5.4874852348260506 1182.629758531961 -1.0010881013045036e-13
    vertex 6.141533806264805 1181.5812651903095 1.346533995416621e-13
  endloop
endfacet
facet normal -1.2333270194083847e-15 -6.2754286221657235e-15 -1.0
  outer loop
    vertex 6.210646057020463 1179.87577211698 1.5227819005758646e-13
    vertex 6.141533806264805 1181.5812651903095 1.346533995416621e-13
    vertex 6.917752838206882 1180.6331860056148 2.1290746943236625e-13
  endloop
endfacet
facet normal -1.2333270194083847e-15 -6.2754286221657235e-15 -1.0
  outer loop
    vertex 6.210646057020463 1179.87577211698 1.5227819005758646e-13
    vertex 6.917752838206882 1180.6331860056148 2.1290746943236625e-13
    vertex 7.194099578798647 1178.951946416946 2.7776669853096787e-13
  endloop
endfacet
facet normal -1.2333270194083847e-15 -6.2754286221657235e-15 -1.0
  outer loop
    vertex 7.194099578798647 1178.951946416946 2.7776669853096787e-13
    vertex 6.917752838206882 1180.6331860056148 2.1290746943236625e-13
    vertex 7.802861007807506 1179.8017428755843 3.7505554217887036e-13
  endloop
endfacet
facet normal -1.2333270194083847e-15 -6.2754286221657235e-15 -1.0
  outer loop
    vertex 7.194099578798647 1178.951946416946 2.7776669853096787e-13
    vertex 7.802861007807506 1179.8017428755843 3.7505554217887036e-13
    vertex 8.28171386888585 1178.1735232470658 2.425171174991192e-13
  endloop
endfacet
facet normal -1.2333270194083847e-15 -6.2754286221657235e-15 -1.0
  outer loop
    vertex 8.28171386888585 1178.1735232470658 2.425171174991192e-13
    vertex 7.802861007807506 1179.8017428755843 3.7505554217887036e-13
    vertex 8.781713868885737 1179.101162022692 3.764655254201443e-13
  endloop
endfacet
facet normal -1.2333270194083847e-15 -6.2754286221657235e-15 -1.0
  outer loop
    vertex 8.28171386888585 1178.1735232470658 2.425171174991192e-13
    vertex 8.781713868885737 1179.101162022692 3.764655254201443e-13
    vertex 9.454879545234986 1177.5538216435957 9.446887716535457e-14
  endloop
endfacet
facet normal -1.2333270194083847e-15 -6.2754286221657235e-15 -1.0
  outer loop
    vertex 9.454879545234986 1177.5538216435957 9.446887716535457e-14
    vertex 8.781713868885737 1179.101162022692 3.764655254201443e-13
    vertex 9.837562977600054 1178.543430579569 8.459899447643692e-15
  endloop
endfacet
facet normal -1.2333270194083847e-15 -6.2754286221657235e-15 -1.0
  outer loop
    vertex 9.454879545234986 1177.5538216435957 9.446887716535457e-14
    vertex 9.837562977600054 1178.543430579569 8.459899447643692e-15
    vertex 10.693523417860659 1177.103444872785 1.9457768729580493e-13
  endloop
endfacet
facet normal -1.2333270194083847e-15 -6.2754286221657235e-15 -1.0
  outer loop
    vertex 10.693523417860659 1177.103444872785 1.9457768729580493e-13
    vertex 9.837562977600054 1178.543430579569 8.459899447643692e-15
    vertex 10.952342462963259 1178.1380914858394 1.1561862578446379e-13
  endloop
endfacet
facet normal -1.2333270194083847e-15 -6.2754286221657235e-15 -1.0
  outer loop
    vertex 10.693523417860659 1177.103444872785 1.9457768729580493e-13
    vertex 10.952342462963259 1178.1380914858394 1.1561862578446379e-13
    vertex 11.976451946685431 1176.8300990060507 2.989164471500771e-13
  endloop
endfacet
facet normal -1.2333270194083847e-15 -6.2754286221657235e-15 -1.0
  outer loop
    vertex 11.976451946685431 1176.8300990060507 2.989164471500771e-13
    vertex 10.952342462963259 1178.1380914858394 1.1561862578446379e-13
    vertex 12.106978138905447 1177.8920802057783 2.5943691639440655e-13
  endloop
endfacet
facet normal -1.2333270194083847e-15 -6.2754286221657235e-15 -1.0
  outer loop
    vertex 11.976451946685431 1176.8300990060507 2.989164471500771e-13
    vertex 12.106978138905447 1177.8920802057783 2.5943691639440655e-13
    vertex 13.281713868885873 1176.7384610669576 3.806954751439662e-13
  endloop
endfacet
facet normal -1.2333270194083847e-15 -6.2754286221657235e-15 -1.0
  outer loop
    vertex 13.281713868885873 1176.7384610669576 3.806954751439662e-13
    vertex 12.106978138905447 1177.8920802057783 2.5943691639440655e-13
    vertex 13.281713868885882 1177.8096060605947 2.3546720129274946e-13
  endloop
endfacet
facet normal -1.2333270194083847e-15 -6.2754286221657235e-15 -1.0
  outer loop
    vertex 13.281713868885873 1176.7384610669576 3.806954751439662e-13
    vertex 13.281713868885882 1177.8096060605947 2.3546720129274946e-13
    vertex 14.58697579108631 1176.8300990060504 2.5943691639440655e-13
  endloop
endfacet
facet normal -1.2333270194083847e-15 -6.2754286221657235e-15 -1.0
  outer loop
    vertex 14.58697579108631 1176.8300990060504 2.5943691639440655e-13
    vertex 13.281713868885882 1177.8096060605947 2.3546720129274946e-13
    vertex 14.4564495988663 1177.8920802057783 2.580269331531326e-13
  endloop
endfacet
facet normal -1.2333270194083847e-15 -6.2754286221657235e-15 -1.0
  outer loop
    vertex 14.58697579108631 1176.8300990060504 2.5943691639440655e-13
    vertex 14.4564495988663 1177.8920802057783 2.580269331531326e-13
    vertex 15.611085274808394 1178.1380914858398 1.8329782136561334e-14
  endloop
endfacet
facet normal -1.2333270194083847e-15 -6.2754286221657235e-15 -1.0
  outer loop
    vertex 14.58697579108631 1176.8300990060504 2.5943691639440655e-13
    vertex 15.611085274808394 1178.1380914858398 1.8329782136561334e-14
    vertex 15.869904319910928 1177.1034448727855 -9.728884364790246e-14
  endloop
endfacet
facet normal -1.2333270194083847e-15 -6.2754286221657235e-15 -1.0
  outer loop
    vertex 15.869904319910928 1177.1034448727855 -9.728884364790246e-14
    vertex 15.611085274808394 1178.1380914858398 1.8329782136561334e-14
    vertex 16.725864760171575 1178.5434305795693 9.023892744153272e-14
  endloop
endfacet
facet normal -1.2333270194083847e-15 -6.2754286221657235e-15 -1.0
  outer loop
    vertex 15.869904319910928 1177.1034448727855 -9.728884364790246e-14
    vertex 16.725864760171575 1178.5434305795693 9.023892744153272e-14
    vertex 17.108548192536617 1177.5538216435962 -1.9316770405453097e-13
  endloop
endfacet
facet normal -1.2333270194083847e-15 -6.2754286221657235e-15 -1.0
  outer loop
    vertex 17.108548192536617 1177.5538216435962 -1.9316770405453097e-13
    vertex 16.725864760171575 1178.5434305795693 9.023892744153272e-14
    vertex 17.78171386888596 1179.101162022692 3.9479530755670567e-13
  endloop
endfacet
facet normal -1.2333270194083847e-15 -6.2754286221657235e-15 -1.0
  outer loop
    vertex 17.108548192536617 1177.5538216435962 -1.9316770405453097e-13
    vertex 17.78171386888596 1179.101162022692 3.9479530755670567e-13
    vertex 18.281713868885788 1178.173523247066 3.130162795628166e-13
  endloop
endfacet
facet normal -1.2333270194083847e-15 -6.2754286221657235e-15 -1.0
  outer loop
    vertex 18.281713868885788 1178.173523247066 3.130162795628166e-13
    vertex 17.78171386888596 1179.101162022692 3.9479530755670567e-13
    vertex 18.760566729964307 1179.8017428755843 3.6166070138676784e-13
  endloop
endfacet
facet normal -1.2333270194083847e-15 -6.2754286221657235e-15 -1.0
  outer loop
    vertex 18.281713868885788 1178.173523247066 3.130162795628166e-13
    vertex 18.760566729964307 1179.8017428755843 3.6166070138676784e-13
    vertex 19.369328158972998 1178.9519464169462 1.424083073686688e-13
  endloop
endfacet
facet normal -1.2333270194083847e-15 -6.2754286221657235e-15 -1.0
  outer loop
    vertex 19.369328158972998 1178.9519464169462 1.424083073686688e-13
    vertex 18.760566729964307 1179.8017428755843 3.6166070138676784e-13
    vertex 19.64567489956489 1180.6331860056148 9.86988268891764e-15
  endloop
endfacet
facet normal -1.2333270194083847e-15 -6.2754286221657235e-15 -1.0
  outer loop
    vertex 19.369328158972998 1178.9519464169462 1.424083073686688e-13
    vertex 19.64567489956489 1180.6331860056148 9.86988268891764e-15
    vertex 20.35278168075124 1179.87577211698 -2.6084689963568052e-14
  endloop
endfacet
facet normal -1.2333270194083847e-15 -6.2754286221657235e-15 -1.0
  outer loop
    vertex 20.35278168075124 1179.87577211698 -2.6084689963568052e-14
    vertex 19.64567489956489 1180.6331860056148 9.86988268891764e-15
    vertex 20.421893931506975 1181.5812651903095 -6.415423747796467e-14
  endloop
endfacet
facet normal -1.2333270194083847e-15 -6.2754286221657235e-15 -1.0
  outer loop
    vertex 20.35278168075124 1179.87577211698 -2.6084689963568052e-14
    vertex 20.421893931506975 1181.5812651903095 -6.415423747796467e-14
    vertex 21.215247271798127 1180.9291934333078 -3.524958103184872e-14
  endloop
endfacet
facet normal -1.2333270194083847e-15 -6.2754286221657235e-15 -1.0
  outer loop
    vertex 21.215247271798127 1180.9291934333078 -3.524958103184872e-14
    vertex 20.421893931506975 1181.5812651903095 -6.415423747796467e-14
    vertex 21.075942502945725 1182.629758531961 1.0292877661299825e-13
  endloop
endfacet
facet normal -1.2333270194083847e-15 -6.2754286221657235e-15 -1.0
  outer loop
    vertex 21.215247271798127 1180.9291934333078 -3.524958103184872e-14
    vertex 21.075942502945725 1182.629758531961 1.0292877661299825e-13
    vertex 21.596629661487544 1183.7607260187965 1.184385922670117e-13
  endloop
endfacet
facet normal -1.2333270194083847e-15 -6.2754286221657235e-15 -1.0
  outer loop
    vertex 21.215247271798127 1180.9291934333078 -3.524958103184872e-14
    vertex 21.596629661487544 1183.7607260187965 1.184385922670117e-13
    vertex 21.94196790673025 1182.0941860351427 1.7977286326242847e-13
  endloop
endfacet
facet normal -1.2333270194083847e-15 -6.2754286221657235e-15 -1.0
  outer loop
    vertex 21.94196790673025 1182.0941860351427 1.7977286326242847e-13
    vertex 21.596629661487544 1183.7607260187965 1.184385922670117e-13
    vertex 21.97504630548741 1184.9548164835523 1.0363376823363523e-13
  endloop
endfacet
facet normal -1.2333270194083847e-15 -6.2754286221657235e-15 -1.0
  outer loop
    vertex 21.94196790673025 1182.0941860351427 1.7977286326242847e-13
    vertex 21.97504630548741 1184.9548164835523 1.0363376823363523e-13
    vertex 22.520509193998883 1183.3508165760707 1.268984917146554e-13
  endloop
endfacet
facet normal -1.2333270194083847e-15 -6.2754286221657235e-15 -1.0
  outer loop
    vertex 22.520509193998883 1183.3508165760707 1.268984917146554e-13
    vertex 21.97504630548741 1184.9548164835523 1.0363376823363523e-13
    vertex 22.204717621250023 1186.1915987073126 6.485922909860164e-14
  endloop
endfacet
facet normal -1.2333270194083847e-15 -6.2754286221657235e-15 -1.0
  outer loop
    vertex 22.520509193998883 1183.3508165760707 1.268984917146554e-13
    vertex 22.204717621250023 1186.1915987073126 6.485922909860164e-14
    vertex 22.281713868885685 1187.4499110033278 1.7765788840051753e-13
  endloop
endfacet
facet normal -1.2333270194083847e-15 -6.2754286221657235e-15 -1.0
  outer loop
    vertex 22.520509193998883 1183.3508165760707 1.268984917146554e-13
    vertex 22.281713868885685 1187.4499110033278 1.7765788840051753e-13
    vertex 22.28171386888577 1203.3825394079065 2.530000690715453e-14
  endloop
endfacet
facet normal -1.2333270194083847e-15 -6.2754286221657235e-15 -1.0
  outer loop
    vertex 22.520509193998883 1183.3508165760707 1.268984917146554e-13
    vertex 22.28171386888577 1203.3825394079065 2.530000690715453e-14
    vertex 23.281713868885912 1203.3825394079065 2.586631360666381e-14
  endloop
endfacet
facet normal -1.2333270194083847e-15 -6.2754286221657235e-15 -1.0
  outer loop
    vertex 22.520509193998883 1183.3508165760707 1.268984917146554e-13
    vertex 23.281713868885912 1203.3825394079065 2.586631360666381e-14
    vertex 22.94097213177671 1184.6775837591329 8.882894420025876e-14
  endloop
endfacet
facet normal -1.2333270194083847e-15 -6.2754286221657235e-15 -1.0
  outer loop
    vertex 22.94097213177671 1184.6775837591329 8.882894420025876e-14
    vertex 23.281713868885912 1203.3825394079065 2.586631360666381e-14
    vertex 23.196162482623922 1186.0517862299776 4.2299497238218464e-14
  endloop
endfacet
facet normal -1.2333270194083847e-15 -6.2754286221657235e-15 -1.0
  outer loop
    vertex 23.196162482623922 1186.0517862299776 4.2299497238218464e-14
    vertex 23.281713868885912 1203.3825394079065 2.586631360666381e-14
    vertex 23.281713868885948 1187.4499110033278 1.755429135386066e-13
  endloop
endfacet
facet normal 2.596038643718e-16 0.7933533402912463 -0.6087614290087063
  outer loop
    vertex 3.281713868885767 1195.7356122624376 10.765685424949268
    vertex 4.281713868885767 1195.6084773643593 10.600000000000032
    vertex 3.281713868885767 1195.6084773643593 10.600000000000032
  endloop
endfacet
facet normal 2.596038643718e-16 0.7933533402912463 -0.6087614290087063
  outer loop
    vertex 4.281713868885767 1195.6084773643593 10.600000000000032
    vertex 3.281713868885767 1195.7356122624376 10.765685424949268
    vertex 4.281713868885767 1195.7356122624376 10.765685424949268
  endloop
endfacet
facet normal 3.6059302323973623e-16 0.6087614290086701 -0.7933533402912741
  outer loop
    vertex 4.281713868885767 1195.901297687387 10.89282032302758
    vertex 3.281713868885767 1195.7356122624376 10.765685424949268
    vertex 3.281713868885767 1195.901297687387 10.89282032302758
  endloop
endfacet
facet normal 3.6059302323973623e-16 0.6087614290086701 -0.7933533402912741
  outer loop
    vertex 3.281713868885767 1195.7356122624376 10.765685424949268
    vertex 4.281713868885767 1195.901297687387 10.89282032302758
    vertex 4.281713868885767 1195.7356122624376 10.765685424949268
  endloop
endfacet
facet normal 5.841375197166586e-16 0.6789851472698961 -0.7341520072756578
  outer loop
    vertex 23.281713868885912 1204.3628948670855 0.43933982822019696
    vertex 22.281713868885774 1204.1051489659208 0.2009618943233614
    vertex 22.281713868885774 1204.3628948670855 0.43933982822019607
  endloop
endfacet
facet normal 5.841375197166586e-16 0.6789851472698961 -0.7341520072756578
  outer loop
    vertex 22.281713868885774 1204.1051489659208 0.2009618943233614
    vertex 23.281713868885912 1204.3628948670855 0.43933982822019696
    vertex 23.281713868885912 1204.1051489659208 0.20096189432336212
  endloop
endfacet
facet normal -4.2936938941322957e-17 0.9659258262890725 0.25881904510250514
  outer loop
    vertex 3.281713868885768 1195.5285570263554 9.992944763918018
    vertex 4.281713868885774 1198.206158505856 6.049168286731224e-14
    vertex 3.2817138688857743 1198.206158505856 5.999697097325106e-14
  endloop
endfacet
facet normal -4.2936938941322957e-17 0.9659258262890725 0.25881904510250514
  outer loop
    vertex 4.281713868885774 1198.206158505856 6.049168286731224e-14
    vertex 3.281713868885768 1195.5285570263554 9.992944763918018
    vertex 4.2817138688857685 1195.5285570263554 9.992944763918018
  endloop
endfacet
facet normal 1.2638719451348632e-17 0.9914448613737742 -0.13052619222032824
  outer loop
    vertex 3.281713868885768 1195.5285570263554 10.40705523608205
    vertex 4.2817138688857685 1195.5012976873868 10.200000000000033
    vertex 3.281713868885768 1195.5012976873868 10.200000000000033
  endloop
endfacet
facet normal 1.2638719451348632e-17 0.9914448613737742 -0.13052619222032824
  outer loop
    vertex 4.2817138688857685 1195.5012976873868 10.200000000000033
    vertex 3.281713868885768 1195.5285570263554 10.40705523608205
    vertex 4.2817138688857685 1195.5285570263554 10.40705523608205
  endloop
endfacet
facet normal -1.1650700010447646e-16 0.9914448613737742 0.13052619222032824
  outer loop
    vertex 3.281713868885768 1195.5012976873868 10.200000000000033
    vertex 4.2817138688857685 1195.5285570263554 9.992944763918018
    vertex 3.281713868885768 1195.5285570263554 9.992944763918018
  endloop
endfacet
facet normal -1.1650700010447646e-16 0.9914448613737742 0.13052619222032824
  outer loop
    vertex 4.2817138688857685 1195.5285570263554 9.992944763918018
    vertex 3.281713868885768 1195.5012976873868 10.200000000000033
    vertex 4.2817138688857685 1195.5012976873868 10.200000000000033
  endloop
endfacet
facet normal 1.4092313116266808e-16 0.9238795325112585 -0.3826834323651583
  outer loop
    vertex 3.281713868885767 1195.6084773643593 10.600000000000032
    vertex 4.2817138688857685 1195.5285570263554 10.40705523608205
    vertex 3.281713868885768 1195.5285570263554 10.40705523608205
  endloop
endfacet
facet normal 1.4092313116266808e-16 0.9238795325112585 -0.3826834323651583
  outer loop
    vertex 4.2817138688857685 1195.5285570263554 10.40705523608205
    vertex 3.281713868885767 1195.6084773643593 10.600000000000032
    vertex 4.281713868885767 1195.6084773643593 10.600000000000032
  endloop
endfacet
facet normal -1.0 3.1569635007898586e-17 -7.61762386667823e-16
  outer loop
    vertex 3.2817138688857757 1187.4499110033275 1.5791812302268225e-13
    vertex 3.281713868885768 1195.5285570263554 10.40705523608205
    vertex 3.281713868885768 1195.5012976873868 10.200000000000033
  endloop
endfacet
facet normal -1.0 3.1569635007898586e-17 -7.61762386667823e-16
  outer loop
    vertex 3.281713868885768 1195.5285570263554 10.40705523608205
    vertex 3.2817138688857757 1187.4499110033275 1.5791812302268225e-13
    vertex 3.2817138688857543 1197.747448216821 26.82600158814928
  endloop
endfacet
facet normal -1.0 3.1569635007898586e-17 -7.61762386667823e-16
  outer loop
    vertex 3.281713868885768 1195.5285570263554 10.40705523608205
    vertex 3.2817138688857543 1197.747448216821 26.82600158814928
    vertex 3.281713868885767 1195.6084773643593 10.600000000000032
  endloop
endfacet
facet normal -1.0 3.1569635007898586e-17 -7.61762386667823e-16
  outer loop
    vertex 3.281713868885767 1195.6084773643593 10.600000000000032
    vertex 3.2817138688857543 1197.747448216821 26.82600158814928
    vertex 3.281713868885767 1195.7356122624376 10.765685424949268
  endloop
endfacet
facet normal -1.0 3.1569635007898586e-17 -7.61762386667823e-16
  outer loop
    vertex 3.281713868885767 1195.7356122624376 10.765685424949268
    vertex 3.2817138688857543 1197.747448216821 26.82600158814928
    vertex 3.281713868885767 1195.901297687387 10.89282032302758
  endloop
endfacet
facet normal -1.0 3.1569635007898586e-17 -7.61762386667823e-16
  outer loop
    vertex 3.281713868885767 1195.901297687387 10.89282032302758
    vertex 3.2817138688857543 1197.747448216821 26.82600158814928
    vertex 3.281713868885767 1196.0942424513046 10.972740661031283
  endloop
endfacet
facet normal -1.0 3.1569635007898586e-17 -7.61762386667823e-16
  outer loop
    vertex 3.281713868885767 1196.0942424513046 10.972740661031283
    vertex 3.2817138688857543 1197.747448216821 26.82600158814928
    vertex 3.281713868885767 1196.3012976873868 11.000000000000028
  endloop
endfacet
facet normal -1.0 3.1569635007898586e-17 -7.61762386667823e-16
  outer loop
    vertex 3.281713868885767 1196.3012976873868 11.000000000000028
    vertex 3.2817138688857543 1197.747448216821 26.82600158814928
    vertex 3.2817138688857685 1201.9880125617792 11.000000000000028
  endloop
endfacet
facet normal -1.0 3.1569635007898586e-17 -7.61762386667823e-16
  outer loop
    vertex 3.2817138688857757 1187.4499110033275 1.5791812302268225e-13
    vertex 3.281713868885768 1195.5285570263554 9.992944763918018
    vertex 3.2817138688857743 1198.206158505856 5.999697097325106e-14
  endloop
endfacet
facet normal -1.0 3.1569635007898586e-17 -7.61762386667823e-16
  outer loop
    vertex 3.281713868885768 1195.5285570263554 9.992944763918018
    vertex 3.2817138688857757 1187.4499110033275 1.5791812302268225e-13
    vertex 3.281713868885768 1195.5012976873868 10.200000000000033
  endloop
endfacet
facet normal -0.3214394653031391 0.8840354341570995 -0.33934940886982623
  outer loop
    vertex 15.611085274808422 1193.919519579237 41.11202575136099
    vertex 16.725864760171575 1178.5434305795693 9.023892744153272e-14
    vertex 15.611085274808394 1178.1380914858398 1.8329782136561334e-14
  endloop
endfacet
facet normal -0.3214394653031391 0.8840354341570995 -0.33934940886982623
  outer loop
    vertex 16.725864760171575 1178.5434305795693 9.023892744153272e-14
    vertex 15.611085274808422 1193.919519579237 41.11202575136099
    vertex 16.725864760171614 1194.0861475000108 40.490161885073626
  endloop
endfacet
facet normal -8.6665644511733065e-16 0.9659258262890684 0.25881904510252063
  outer loop
    vertex 3.2817138688857543 1197.747448216821 26.82600158814928
    vertex 4.2817138688857685 1201.9880125617792 11.000000000000028
    vertex 3.2817138688857685 1201.9880125617792 11.000000000000028
  endloop
endfacet
facet normal -8.6665644511733065e-16 0.9659258262890684 0.25881904510252063
  outer loop
    vertex 4.2817138688857685 1201.9880125617792 11.000000000000028
    vertex 3.2817138688857543 1197.747448216821 26.82600158814928
    vertex 4.28171386888595 1197.7474482168209 26.826001588149456
  endloop
endfacet
facet normal -8.6665644511733065e-16 0.9659258262890684 0.25881904510252063
  outer loop
    vertex 4.28171386888595 1197.7474482168209 26.826001588149456
    vertex 3.2817138688857543 1197.747448216821 26.82600158814928
    vertex 3.36726525514779 1197.172703200686 28.97097918976127
  endloop
endfacet
facet normal -8.6665644511733065e-16 0.9659258262890684 0.25881904510252063
  outer loop
    vertex 4.28171386888595 1197.7474482168209 26.826001588149456
    vertex 3.36726525514779 1197.172703200686 28.97097918976127
    vertex 4.3587101165216735 1197.2301777022997 28.756481429600125
  endloop
endfacet
facet normal -8.6665644511733065e-16 0.9659258262890684 0.25881904510252063
  outer loop
    vertex 4.3587101165216735 1197.2301777022997 28.756481429600125
    vertex 3.36726525514779 1197.172703200686 28.97097918976127
    vertex 4.588381432284176 1196.7217578296963 30.653930225733337
  endloop
endfacet
facet normal -8.6665644511733065e-16 0.9659258262890684 0.25881904510252063
  outer loop
    vertex 4.588381432284176 1196.7217578296963 30.653930225733337
    vertex 3.36726525514779 1197.172703200686 28.97097918976127
    vertex 3.622455605995205 1196.607792231127 31.079255629909692
  endloop
endfacet
facet normal -8.6665644511733065e-16 0.9659258262890684 0.25881904510252063
  outer loop
    vertex 4.588381432284176 1196.7217578296963 30.653930225733337
    vertex 3.622455605995205 1196.607792231127 31.079255629909692
    vertex 4.966798076284348 1196.230887803992 32.48588210157526
  endloop
endfacet
facet normal -8.6665644511733065e-16 0.9659258262890684 0.25881904510252063
  outer loop
    vertex 4.966798076284348 1196.230887803992 32.48588210157526
    vertex 3.622455605995205 1196.607792231127 31.079255629909692
    vertex 4.042918543772958 1196.0623810914553 33.11475771417798
  endloop
endfacet
facet normal -8.6665644511733065e-16 0.9659258262890684 0.25881904510252063
  outer loop
    vertex 4.966798076284348 1196.230887803992 32.48588210157526
    vertex 4.042918543772958 1196.0623810914553 33.11475771417798
    vertex 5.487485234825978 1195.7659665474207 34.22099185261748
  endloop
endfacet
facet normal -8.6665644511733065e-16 0.9659258262890684 0.25881904510252063
  outer loop
    vertex 5.487485234825978 1195.7659665474207 34.22099185261748
    vertex 4.042918543772958 1196.0623810914553 33.11475771417798
    vertex 4.6214598310414985 1195.5458019174876 35.04265743755803
  endloop
endfacet
facet normal -8.6665644511733065e-16 0.9659258262890684 0.25881904510252063
  outer loop
    vertex 5.487485234825978 1195.7659665474207 34.22099185261748
    vertex 4.6214598310414985 1195.5458019174876 35.04265743755803
    vertex 6.141533806264671 1195.3349489915838 35.82957126995537
  endloop
endfacet
facet normal -8.6665644511733065e-16 0.9659258262890684 0.25881904510252063
  outer loop
    vertex 6.141533806264671 1195.3349489915838 35.82957126995537
    vertex 4.6214598310414985 1195.5458019174876 35.04265743755803
    vertex 5.348180465973531 1195.066893522113 36.829967901267125
  endloop
endfacet
facet normal -8.6665644511733065e-16 0.9659258262890684 0.25881904510252063
  outer loop
    vertex 6.141533806264671 1195.3349489915838 35.82957126995537
    vertex 5.348180465973531 1195.066893522113 36.829967901267125
    vertex 6.9177528382068445 1194.9452099663615 37.28409711377693
  endloop
endfacet
facet normal -8.6665644511733065e-16 0.9659258262890684 0.25881904510252063
  outer loop
    vertex 6.9177528382068445 1194.9452099663615 37.28409711377693
    vertex 5.348180465973531 1195.066893522113 36.829967901267125
    vertex 6.21064605702043 1194.633850160755 38.4461077277358
  endloop
endfacet
facet normal -8.6665644511733065e-16 0.9659258262890684 0.25881904510252063
  outer loop
    vertex 6.9177528382068445 1194.9452099663615 37.28409711377693
    vertex 6.21064605702043 1194.633850160755 38.4461077277358
    vertex 7.802861007807059 1194.603418014532 38.55968204362278
  endloop
endfacet
facet normal -8.6665644511733065e-16 0.9659258262890684 0.25881904510252063
  outer loop
    vertex 7.802861007807059 1194.603418014532 38.55968204362278
    vertex 6.21064605702043 1194.633850160755 38.4461077277358
    vertex 7.194099578798537 1194.2540813253886 39.86342431645368
  endloop
endfacet
facet normal -8.6665644511733065e-16 0.9659258262890684 0.25881904510252063
  outer loop
    vertex 7.802861007807059 1194.603418014532 38.55968204362278
    vertex 7.194099578798537 1194.2540813253886 39.86342431645368
    vertex 8.781713868885758 1194.3154212911534 39.6345004476853
  endloop
endfacet
facet normal -8.6665644511733065e-16 0.9659258262890684 0.25881904510252063
  outer loop
    vertex 8.781713868885758 1194.3154212911534 39.6345004476853
    vertex 7.194099578798537 1194.2540813253886 39.86342431645368
    vertex 9.837562977600033 1194.0861475000106 40.490161885073796
  endloop
endfacet
facet normal -8.6665644511733065e-16 0.9659258262890684 0.25881904510252063
  outer loop
    vertex 9.837562977600033 1194.0861475000106 40.490161885073796
    vertex 7.194099578798537 1194.2540813253886 39.86342431645368
    vertex 8.281713868885898 1193.9340849660791 41.05766698763388
  endloop
endfacet
facet normal -8.6665644511733065e-16 0.9659258262890684 0.25881904510252063
  outer loop
    vertex 9.837562977600033 1194.0861475000106 40.490161885073796
    vertex 8.281713868885898 1193.9340849660791 41.05766698763388
    vertex 10.95234246296323 1193.919519579237 41.11202575136116
  endloop
endfacet
facet normal -8.6665644511733065e-16 0.9659258262890684 0.25881904510252063
  outer loop
    vertex 10.95234246296323 1193.919519579237 41.11202575136116
    vertex 8.281713868885898 1193.9340849660791 41.05766698763388
    vertex 9.454879545234938 1193.679336309254 42.00840191806568
  endloop
endfacet
facet normal -8.6665644511733065e-16 0.9659258262890684 0.25881904510252063
  outer loop
    vertex 10.95234246296323 1193.919519579237 41.11202575136116
    vertex 9.454879545234938 1193.679336309254 42.00840191806568
    vertex 12.106978138905403 1193.8183885787546 41.489451783381696
  endloop
endfacet
facet normal -8.6665644511733065e-16 0.9659258262890684 0.25881904510252063
  outer loop
    vertex 12.106978138905403 1193.8183885787546 41.489451783381696
    vertex 9.454879545234938 1193.679336309254 42.00840191806568
    vertex 13.28171386888583 1193.7844848780205 41.61598211708534
  endloop
endfacet
facet normal -8.6665644511733065e-16 0.9659258262890684 0.25881904510252063
  outer loop
    vertex 13.28171386888583 1193.7844848780205 41.61598211708534
    vertex 9.454879545234938 1193.679336309254 42.00840191806568
    vertex 17.108548192536638 1193.679336309254 42.00840191806533
  endloop
endfacet
facet normal -8.6665644511733065e-16 0.9659258262890684 0.25881904510252063
  outer loop
    vertex 17.108548192536638 1193.679336309254 42.00840191806533
    vertex 9.454879545234938 1193.679336309254 42.00840191806568
    vertex 15.86990431991096 1193.494194175061 42.6993617694957
  endloop
endfacet
facet normal -8.6665644511733065e-16 0.9659258262890684 0.25881904510252063
  outer loop
    vertex 15.86990431991096 1193.494194175061 42.6993617694957
    vertex 9.454879545234938 1193.679336309254 42.00840191806568
    vertex 10.693523417860611 1193.4941941750608 42.69936176949605
  endloop
endfacet
facet normal -8.6665644511733065e-16 0.9659258262890684 0.25881904510252063
  outer loop
    vertex 15.86990431991096 1193.494194175061 42.6993617694957
    vertex 10.693523417860611 1193.4941941750608 42.69936176949605
    vertex 14.586975791086273 1193.381826396747 43.11872402729652
  endloop
endfacet
facet normal -8.6665644511733065e-16 0.9659258262890684 0.25881904510252063
  outer loop
    vertex 14.586975791086273 1193.381826396747 43.11872402729652
    vertex 10.693523417860611 1193.4941941750608 42.69936176949605
    vertex 11.976451946685394 1193.381826396747 43.11872402729635
  endloop
endfacet
facet normal -8.6665644511733065e-16 0.9659258262890684 0.25881904510252063
  outer loop
    vertex 14.586975791086273 1193.381826396747 43.11872402729652
    vertex 11.976451946685394 1193.381826396747 43.11872402729635
    vertex 13.28171386888583 1193.3441556181538 43.25931328696712
  endloop
endfacet
facet normal -8.6665644511733065e-16 0.9659258262890684 0.25881904510252063
  outer loop
    vertex 22.281713868885657 1197.747448216821 26.826001588149122
    vertex 23.281713868885912 1204.533529889875 1.5000000000000173
    vertex 22.281713868885774 1204.533529889875 1.5000000000000162
  endloop
endfacet
facet normal -8.6665644511733065e-16 0.9659258262890684 0.25881904510252063
  outer loop
    vertex 23.281713868885912 1204.533529889875 1.5000000000000173
    vertex 22.281713868885657 1197.747448216821 26.826001588149122
    vertex 23.281713868885927 1197.747448216821 26.826001588149122
  endloop
endfacet
facet normal -8.6665644511733065e-16 0.9659258262890684 0.25881904510252063
  outer loop
    vertex 23.281713868885927 1197.747448216821 26.826001588149122
    vertex 22.281713868885657 1197.747448216821 26.826001588149122
    vertex 22.204717621250005 1197.2301777023 28.756481429599788
  endloop
endfacet
facet normal -8.6665644511733065e-16 0.9659258262890684 0.25881904510252063
  outer loop
    vertex 23.281713868885927 1197.747448216821 26.826001588149122
    vertex 22.204717621250005 1197.2301777023 28.756481429599788
    vertex 23.196162482623848 1197.172703200686 28.97097918976128
  endloop
endfacet
facet normal -8.6665644511733065e-16 0.9659258262890684 0.25881904510252063
  outer loop
    vertex 23.196162482623848 1197.172703200686 28.97097918976128
    vertex 22.204717621250005 1197.2301777023 28.756481429599788
    vertex 21.97504630548738 1196.7217578296963 30.65393022573335
  endloop
endfacet
facet normal -8.6665644511733065e-16 0.9659258262890684 0.25881904510252063
  outer loop
    vertex 23.196162482623848 1197.172703200686 28.97097918976128
    vertex 21.97504630548738 1196.7217578296963 30.65393022573335
    vertex 22.940972131776572 1196.607792231127 31.079255629909706
  endloop
endfacet
facet normal -8.6665644511733065e-16 0.9659258262890684 0.25881904510252063
  outer loop
    vertex 22.940972131776572 1196.607792231127 31.079255629909706
    vertex 21.97504630548738 1196.7217578296963 30.65393022573335
    vertex 21.596629661487498 1196.230887803992 32.48588210157544
  endloop
endfacet
facet normal -8.6665644511733065e-16 0.9659258262890684 0.25881904510252063
  outer loop
    vertex 22.940972131776572 1196.607792231127 31.079255629909706
    vertex 21.596629661487498 1196.230887803992 32.48588210157544
    vertex 22.520509193998752 1196.0623810914553 33.114757714178516
  endloop
endfacet
facet normal -8.6665644511733065e-16 0.9659258262890684 0.25881904510252063
  outer loop
    vertex 22.520509193998752 1196.0623810914553 33.114757714178516
    vertex 21.596629661487498 1196.230887803992 32.48588210157544
    vertex 21.075942502945686 1195.7659665474207 34.22099185261732
  endloop
endfacet
facet normal -8.6665644511733065e-16 0.9659258262890684 0.25881904510252063
  outer loop
    vertex 22.520509193998752 1196.0623810914553 33.114757714178516
    vertex 21.075942502945686 1195.7659665474207 34.22099185261732
    vertex 21.941967906730167 1195.5458019174873 35.04265743755838
  endloop
endfacet
facet normal -8.6665644511733065e-16 0.9659258262890684 0.25881904510252063
  outer loop
    vertex 21.941967906730167 1195.5458019174873 35.04265743755838
    vertex 21.075942502945686 1195.7659665474207 34.22099185261732
    vertex 20.421893931506904 1195.3349489915836 35.829571269955736
  endloop
endfacet
facet normal -8.6665644511733065e-16 0.9659258262890684 0.25881904510252063
  outer loop
    vertex 21.941967906730167 1195.5458019174873 35.04265743755838
    vertex 20.421893931506904 1195.3349489915836 35.829571269955736
    vertex 21.21524727179804 1195.0668935221129 36.82996790126765
  endloop
endfacet
facet normal -8.6665644511733065e-16 0.9659258262890684 0.25881904510252063
  outer loop
    vertex 21.21524727179804 1195.0668935221129 36.82996790126765
    vertex 20.421893931506904 1195.3349489915836 35.829571269955736
    vertex 19.64567489956482 1194.9452099663615 37.284097113777285
  endloop
endfacet
facet normal -8.6665644511733065e-16 0.9659258262890684 0.25881904510252063
  outer loop
    vertex 21.21524727179804 1195.0668935221129 36.82996790126765
    vertex 19.64567489956482 1194.9452099663615 37.284097113777285
    vertex 20.35278168075123 1194.633850160755 38.44610772773564
  endloop
endfacet
facet normal -8.6665644511733065e-16 0.9659258262890684 0.25881904510252063
  outer loop
    vertex 20.35278168075123 1194.633850160755 38.44610772773564
    vertex 19.64567489956482 1194.9452099663615 37.284097113777285
    vertex 18.760566729964243 1194.603418014532 38.559682043622956
  endloop
endfacet
facet normal -8.6665644511733065e-16 0.9659258262890684 0.25881904510252063
  outer loop
    vertex 20.35278168075123 1194.633850160755 38.44610772773564
    vertex 18.760566729964243 1194.603418014532 38.559682043622956
    vertex 19.369328158972944 1194.2540813253888 39.86342431645318
  endloop
endfacet
facet normal -8.6665644511733065e-16 0.9659258262890684 0.25881904510252063
  outer loop
    vertex 19.369328158972944 1194.2540813253888 39.86342431645318
    vertex 18.760566729964243 1194.603418014532 38.559682043622956
    vertex 17.78171386888589 1194.3154212911534 39.634500447685134
  endloop
endfacet
facet normal -8.6665644511733065e-16 0.9659258262890684 0.25881904510252063
  outer loop
    vertex 19.369328158972944 1194.2540813253888 39.86342431645318
    vertex 17.78171386888589 1194.3154212911534 39.634500447685134
    vertex 16.725864760171614 1194.0861475000108 40.490161885073626
  endloop
endfacet
facet normal -8.6665644511733065e-16 0.9659258262890684 0.25881904510252063
  outer loop
    vertex 19.369328158972944 1194.2540813253888 39.86342431645318
    vertex 16.725864760171614 1194.0861475000108 40.490161885073626
    vertex 18.281713868885596 1193.9340849660794 41.05766698763371
  endloop
endfacet
facet normal -8.6665644511733065e-16 0.9659258262890684 0.25881904510252063
  outer loop
    vertex 18.281713868885596 1193.9340849660794 41.05766698763371
    vertex 16.725864760171614 1194.0861475000108 40.490161885073626
    vertex 15.611085274808422 1193.919519579237 41.11202575136099
  endloop
endfacet
facet normal -8.6665644511733065e-16 0.9659258262890684 0.25881904510252063
  outer loop
    vertex 18.281713868885596 1193.9340849660794 41.05766698763371
    vertex 15.611085274808422 1193.919519579237 41.11202575136099
    vertex 17.108548192536638 1193.679336309254 42.00840191806533
  endloop
endfacet
facet normal -8.6665644511733065e-16 0.9659258262890684 0.25881904510252063
  outer loop
    vertex 17.108548192536638 1193.679336309254 42.00840191806533
    vertex 15.611085274808422 1193.919519579237 41.11202575136099
    vertex 14.45644959886624 1193.8183885787546 41.489451783381696
  endloop
endfacet
facet normal -8.6665644511733065e-16 0.9659258262890684 0.25881904510252063
  outer loop
    vertex 17.108548192536638 1193.679336309254 42.00840191806533
    vertex 14.45644959886624 1193.8183885787546 41.489451783381696
    vertex 13.28171386888583 1193.7844848780205 41.61598211708534
  endloop
endfacet
facet normal -0.9978589232386059 0.06105908128089462 -0.023438385316040505
  outer loop
    vertex 22.204717621250005 1197.2301777023 28.756481429599788
    vertex 22.281713868885685 1187.4499110033278 1.7765788840051753e-13
    vertex 22.204717621250023 1186.1915987073126 6.485922909860164e-14
  endloop
endfacet
facet normal -0.9978589232386059 0.06105908128089462 -0.023438385316040505
  outer loop
    vertex 22.281713868885685 1187.4499110033278 1.7765788840051753e-13
    vertex 22.204717621250005 1197.2301777023 28.756481429599788
    vertex 22.281713868885657 1197.747448216821 26.826001588149122
  endloop
endfacet
facet normal -0.6593458150999272 0.7019029281239133 -0.2694352901928206
  outer loop
    vertex 18.760566729964307 1179.8017428755843 3.6166070138676784e-13
    vertex 19.64567489956482 1194.9452099663615 37.284097113777285
    vertex 19.64567489956489 1180.6331860056148 9.86988268891764e-15
  endloop
endfacet
facet normal -0.6593458150999272 0.7019029281239133 -0.2694352901928206
  outer loop
    vertex 19.64567489956482 1194.9452099663615 37.284097113777285
    vertex 18.760566729964307 1179.8017428755843 3.6166070138676784e-13
    vertex 18.760566729964243 1194.603418014532 38.559682043622956
  endloop
endfacet
facet normal -0.06540312923008507 0.931581559141137 -0.35760065625650195
  outer loop
    vertex 13.28171386888583 1193.7844848780205 41.61598211708534
    vertex 14.4564495988663 1177.8920802057783 2.580269331531326e-13
    vertex 13.281713868885882 1177.8096060605947 2.3546720129274946e-13
  endloop
endfacet
facet normal -0.06540312923008507 0.931581559141137 -0.35760065625650195
  outer loop
    vertex 14.4564495988663 1177.8920802057783 2.580269331531326e-13
    vertex 13.28171386888583 1193.7844848780205 41.61598211708534
    vertex 14.45644959886624 1193.8183885787546 41.489451783381696
  endloop
endfacet
facet normal 0.8968727415327054 0.4129120640495125 -0.1585020910208453
  outer loop
    vertex 4.966798076284401 1183.7607260187965 1.071587263368201e-13
    vertex 5.487485234825978 1195.7659665474207 34.22099185261748
    vertex 5.4874852348260506 1182.629758531961 -1.0010881013045036e-13
  endloop
endfacet
facet normal 0.8968727415327054 0.4129120640495125 -0.1585020910208453
  outer loop
    vertex 5.487485234825978 1195.7659665474207 34.22099185261748
    vertex 4.966798076284401 1183.7607260187965 1.071587263368201e-13
    vertex 4.966798076284348 1196.230887803992 32.48588210157526
  endloop
endfacet
facet normal -0.896872741532633 0.4129120640496484 -0.15850209102090074
  outer loop
    vertex 21.075942502945686 1195.7659665474207 34.22099185261732
    vertex 21.596629661487544 1183.7607260187965 1.184385922670117e-13
    vertex 21.075942502945725 1182.629758531961 1.0292877661299825e-13
  endloop
endfacet
facet normal -0.896872741532633 0.4129120640496484 -0.15850209102090074
  outer loop
    vertex 21.596629661487544 1183.7607260187965 1.184385922670117e-13
    vertex 21.075942502945686 1195.7659665474207 34.22099185261732
    vertex 21.596629661487498 1196.230887803992 32.48588210157544
  endloop
endfacet
facet normal -0.19509032201631568 0.9156419403809911 -0.351482009882304
  outer loop
    vertex 14.4564495988663 1177.8920802057783 2.580269331531326e-13
    vertex 15.611085274808422 1193.919519579237 41.11202575136099
    vertex 15.611085274808394 1178.1380914858398 1.8329782136561334e-14
  endloop
endfacet
facet normal -0.19509032201631568 0.9156419403809911 -0.351482009882304
  outer loop
    vertex 15.611085274808422 1193.919519579237 41.11202575136099
    vertex 14.4564495988663 1177.8920802057783 2.580269331531326e-13
    vertex 14.45644959886624 1193.8183885787546 41.489451783381696
  endloop
endfacet
facet normal -0.4422886902188 0.8373028365538943 -0.32141044538617747
  outer loop
    vertex 16.725864760171614 1194.0861475000108 40.490161885073626
    vertex 17.78171386888596 1179.101162022692 3.9479530755670567e-13
    vertex 16.725864760171575 1178.5434305795693 9.023892744153272e-14
  endloop
endfacet
facet normal -0.4422886902188 0.8373028365538943 -0.32141044538617747
  outer loop
    vertex 17.78171386888596 1179.101162022692 3.9479530755670567e-13
    vertex 16.725864760171614 1194.0861475000108 40.490161885073626
    vertex 17.78171386888589 1194.3154212911534 39.634500447685134
  endloop
endfacet
facet normal 0.06540312923008604 0.9315815591411372 -0.3576006562565017
  outer loop
    vertex 12.106978138905447 1177.8920802057783 2.5943691639440655e-13
    vertex 13.28171386888583 1193.7844848780205 41.61598211708534
    vertex 13.281713868885882 1177.8096060605947 2.3546720129274946e-13
  endloop
endfacet
facet normal 0.06540312923008604 0.9315815591411372 -0.3576006562565017
  outer loop
    vertex 13.28171386888583 1193.7844848780205 41.61598211708534
    vertex 12.106978138905447 1177.8920802057783 2.5943691639440655e-13
    vertex 12.106978138905403 1193.8183885787546 41.489451783381696
  endloop
endfacet
facet normal -0.8314696123025725 0.5186694950915516 -0.19909856523562522
  outer loop
    vertex 20.421893931506904 1195.3349489915836 35.829571269955736
    vertex 21.075942502945725 1182.629758531961 1.0292877661299825e-13
    vertex 20.421893931506975 1181.5812651903095 -6.415423747796467e-14
  endloop
endfacet
facet normal -0.8314696123025725 0.5186694950915516 -0.19909856523562522
  outer loop
    vertex 21.075942502945725 1182.629758531961 1.0292877661299825e-13
    vertex 20.421893931506904 1195.3349489915836 35.829571269955736
    vertex 21.075942502945686 1195.7659665474207 34.22099185261732
  endloop
endfacet
facet normal 4.3581809797681726e-16 0.8848706717047577 -0.46583676793139805
  outer loop
    vertex 22.281713868885774 1204.5264407218351 0.750000000000016
    vertex 23.281713868885912 1204.3628948670855 0.43933982822019696
    vertex 22.281713868885774 1204.3628948670855 0.43933982822019607
  endloop
endfacet
facet normal 4.3581809797681726e-16 0.8848706717047577 -0.46583676793139805
  outer loop
    vertex 23.281713868885912 1204.3628948670855 0.43933982822019696
    vertex 22.281713868885774 1204.5264407218351 0.750000000000016
    vertex 23.281713868885912 1204.5264407218351 0.750000000000017
  endloop
endfacet
facet normal 1.597805011419733e-16 0.9873053077137492 -0.15883396790440912
  outer loop
    vertex 22.281713868885774 1204.5846411504413 1.1117714323462342
    vertex 23.281713868885912 1204.5264407218351 0.750000000000017
    vertex 22.281713868885774 1204.5264407218351 0.750000000000016
  endloop
endfacet
facet normal 1.597805011419733e-16 0.9873053077137492 -0.15883396790440912
  outer loop
    vertex 23.281713868885912 1204.5264407218351 0.750000000000017
    vertex 22.281713868885774 1204.5846411504413 1.1117714323462342
    vertex 23.281713868885912 1204.5846411504413 1.1117714323462353
  endloop
endfacet
endsolid bobby car
