solid bobby car
facet normal 0.8968727415326994 -0.4129120640495236 0.15850209102085125
  outer loop
    vertex 95.30064116212091 1189.4326187639954 1.4663825709249067e-13
    vertex 94.7220998748525 1201.627604105412 35.042657437558226
    vertex 94.72209987485247 1188.1759882230672 3.7787550866141827e-13
  endloop
endfacet
facet normal 0.8968727415326994 -0.4129120640495236 0.15850209102085125
  outer loop
    vertex 94.7220998748525 1201.627604105412 35.042657437558226
    vertex 95.30064116212091 1189.4326187639954 1.4663825709249067e-13
    vertex 95.30064116212104 1202.1441832793798 33.11475771417818
  endloop
endfacet
facet normal 0.980785280403245 0.18213250603322503 -0.06991411867702647
  outer loop
    vertex 77.13884208464398 1192.2734008952373 2.693067990833242e-13
    vertex 77.36851340040663 1202.803560017621 30.653930225733554
    vertex 77.36851340040658 1191.036618671477 3.080813382183578e-13
  endloop
endfacet
facet normal 0.980785280403245 0.18213250603322503 -0.06991411867702647
  outer loop
    vertex 77.36851340040663 1202.803560017621 30.653930225733554
    vertex 77.13884208464398 1192.2734008952373 2.693067990833242e-13
    vertex 77.138842084644 1203.3119798902244 28.75648142959999
  endloop
endfacet
facet normal -0.1950903220161205 0.9156419403810265 -0.3514820098823198
  outer loop
    vertex 87.23658156698855 1183.973882393703 4.638844863791292e-13
    vertex 88.39121724293076 1200.0013217671615 41.112025751361365
    vertex 88.39121724293075 1184.219893673764 3.2006619576918634e-13
  endloop
endfacet
facet normal -0.1950903220161205 0.9156419403810265 -0.3514820098823198
  outer loop
    vertex 88.39121724293076 1200.0013217671615 41.112025751361365
    vertex 87.23658156698855 1183.973882393703 4.638844863791292e-13
    vertex 87.2365815669886 1199.900190766679 41.4894517833819
  endloop
endfacet
facet normal -0.5555702330197188 0.7762437552728005 -0.297972060070061
  outer loop
    vertex 90.56184583700826 1185.1829642106168 5.809130954048669e-13
    vertex 91.54069869808694 1200.6852202024565 38.559682043622985
    vertex 91.5406986980865 1185.8835450635088 5.795031121635929e-13
  endloop
endfacet
facet normal -0.5555702330197188 0.7762437552728005 -0.297972060070061
  outer loop
    vertex 91.54069869808694 1200.6852202024565 38.559682043622985
    vertex 90.56184583700826 1185.1829642106168 5.809130954048669e-13
    vertex 90.56184583700825 1200.397223479078 39.634500447685504
  endloop
endfacet
facet normal -5.402730169643129e-16 0.13052619222000708 -0.9914448613738164
  outer loop
    vertex 77.06184583700822 1209.8525701634849 0.05111126056662411
    vertex 76.06184583700808 1209.464341595831 2.303138835913864e-13
    vertex 76.06184583700808 1209.8525701634849 0.051111260566624635
  endloop
endfacet
facet normal -5.402730169643129e-16 0.13052619222000708 -0.9914448613738164
  outer loop
    vertex 76.06184583700808 1209.464341595831 2.303138835913864e-13
    vertex 77.06184583700822 1209.8525701634849 0.05111126056662411
    vertex 77.06184583700824 1209.464341595831 2.297475768918771e-13
  endloop
endfacet
facet normal -0.8314696123025741 0.5186694950915508 -0.19909856523562172
  outer loop
    vertex 93.20202589962932 1201.4167511795083 35.82957126995557
    vertex 93.85607447106796 1188.7115607198857 1.0433875985427221e-13
    vertex 93.2020258996292 1187.6630673782342 3.391009695263847e-13
  endloop
endfacet
facet normal -0.8314696123025741 0.5186694950915508 -0.19909856523562172
  outer loop
    vertex 93.85607447106796 1188.7115607198857 1.0433875985427221e-13
    vertex 93.20202589962932 1201.4167511795083 35.82957126995557
    vertex 93.85607447106803 1201.8477687353454 34.220991852617686
  endloop
endfacet
facet normal -0.9807852804032593 0.18213250603315928 -0.06991411867699907
  outer loop
    vertex 94.75517827360983 1202.803560017621 30.653930225733543
    vertex 94.98484958937232 1192.2734008952373 2.460420756023041e-13
    vertex 94.75517827360979 1191.036618671477 2.8552160635797463e-13
  endloop
endfacet
facet normal -0.9807852804032593 0.18213250603315928 -0.06991411867699907
  outer loop
    vertex 94.98484958937232 1192.2734008952373 2.460420756023041e-13
    vertex 94.75517827360983 1202.803560017621 30.653930225733543
    vertex 94.98484958937233 1203.3119798902244 28.756481429600328
  endloop
endfacet
facet normal -5.665064387087467e-16 0.4089552486580514 -0.9125544392500818
  outer loop
    vertex 77.06184583700822 1210.1869511538453 0.20096189432356584
    vertex 76.06184583700808 1209.8525701634849 0.051111260566624635
    vertex 76.06184583700808 1210.1869511538453 0.20096189432356656
  endloop
endfacet
facet normal -5.665064387087467e-16 0.4089552486580514 -0.9125544392500818
  outer loop
    vertex 76.06184583700808 1209.8525701634849 0.051111260566624635
    vertex 77.06184583700822 1210.1869511538453 0.20096189432356584
    vertex 77.06184583700822 1209.8525701634849 0.05111126056662411
  endloop
endfacet
facet normal 1.3695144981043228e-16 0.9914448613738337 0.13052619221987447
  outer loop
    vertex 76.06184583700808 1210.666443338366 1.1117714323464398
    vertex 77.06184583700822 1210.6153320777996 1.5000000000002207
    vertex 77.06184583700822 1210.666443338366 1.1117714323464387
  endloop
endfacet
facet normal 1.3695144981043228e-16 0.9914448613738337 0.13052619221987447
  outer loop
    vertex 77.06184583700822 1210.6153320777996 1.5000000000002207
    vertex 76.06184583700808 1210.666443338366 1.1117714323464398
    vertex 76.06184583700808 1210.6153320777996 1.5000000000002218
  endloop
endfacet
facet normal 0.751839807479096 0.6155523472701413 -0.23628840779863758
  outer loop
    vertex 78.92166577438702 1187.6630673782342 1.402933325067579e-13
    vertex 79.69788480632918 1201.027012154286 37.28409711377749
    vertex 79.69788480632911 1186.7149881935393 2.143174526736402e-13
  endloop
endfacet
facet normal 0.751839807479096 0.6155523472701413 -0.23628840779863758
  outer loop
    vertex 79.69788480632918 1201.027012154286 37.28409711377749
    vertex 78.92166577438702 1187.6630673782342 1.402933325067579e-13
    vertex 78.92166577438711 1201.4167511795083 35.829571269955935
  endloop
endfacet
facet normal -0.9978589232386021 0.06105908128094859 -0.023438385316059435
  outer loop
    vertex 94.98484958937233 1203.3119798902244 28.756481429600328
    vertex 95.06184583700804 1193.5317131912523 3.623656930074048e-13
    vertex 94.98484958937232 1192.2734008952373 2.460420756023041e-13
  endloop
endfacet
facet normal -0.9978589232386021 0.06105908128094859 -0.023438385316059435
  outer loop
    vertex 95.06184583700804 1193.5317131912523 3.623656930074048e-13
    vertex 94.98484958937233 1203.3119798902244 28.756481429600328
    vertex 95.06184583700805 1203.8292504047456 26.82600158814966
  endloop
endfacet
facet normal -0.7518398074790118 0.6155523472702308 -0.23628840779867255
  outer loop
    vertex 92.42580686768716 1201.0270121542862 37.28409711377713
    vertex 93.2020258996292 1187.6630673782342 3.391009695263847e-13
    vertex 92.42580686768711 1186.7149881935393 4.1735503941708883e-13
  endloop
endfacet
facet normal -0.7518398074790118 0.6155523472702308 -0.23628840779867255
  outer loop
    vertex 93.2020258996292 1187.6630673782342 3.391009695263847e-13
    vertex 92.42580686768716 1201.0270121542862 37.28409711377713
    vertex 93.20202589962932 1201.4167511795083 35.82957126995557
  endloop
endfacet
facet normal 0.5555702330196735 0.7762437552728274 -0.2979720600700756
  outer loop
    vertex 80.58299297592976 1200.6852202024565 38.559682043623155
    vertex 81.56184583700805 1185.1829642106168 5.992428775414282e-13
    vertex 80.5829929759297 1185.8835450635088 5.661082713714904e-13
  endloop
endfacet
facet normal 0.5555702330196735 0.7762437552728274 -0.2979720600700756
  outer loop
    vertex 81.56184583700805 1185.1829642106168 5.992428775414282e-13
    vertex 80.58299297592976 1200.6852202024565 38.559682043623155
    vertex 81.56184583700812 1200.397223479078 39.63450044768533
  endloop
endfacet
facet normal 0.9469301294951534 0.30008959311062644 -0.1151936020835817
  outer loop
    vertex 77.36851340040658 1191.036618671477 3.080813382183578e-13
    vertex 77.74693004440651 1202.3126899919164 32.48588210157564
    vertex 77.74693004440647 1189.842528206721 3.2288616225173425e-13
  endloop
endfacet
facet normal 0.9469301294951534 0.30008959311062644 -0.1151936020835817
  outer loop
    vertex 77.74693004440651 1202.3126899919164 32.48588210157564
    vertex 77.36851340040658 1191.036618671477 3.080813382183578e-13
    vertex 77.36851340040663 1202.803560017621 30.653930225733554
  endloop
endfacet
facet normal -0.3214394653031755 0.8840354341570866 -0.33934940886982545
  outer loop
    vertex 88.39121724293075 1184.219893673764 3.2006619576918634e-13
    vertex 89.50599672829397 1200.1679496879353 40.490161885073995
    vertex 89.50599672829394 1184.6252327674938 2.1290746943236625e-13
  endloop
endfacet
facet normal -0.3214394653031755 0.8840354341570866 -0.33934940886982545
  outer loop
    vertex 89.50599672829397 1200.1679496879353 40.490161885073995
    vertex 88.39121724293075 1184.219893673764 3.2006619576918634e-13
    vertex 88.39121724293076 1200.0013217671615 41.112025751361365
  endloop
endfacet
facet normal 0.6593458150999272 0.7019029281239133 -0.2694352901928206
  outer loop
    vertex 79.69788480632918 1201.027012154286 37.28409711377749
    vertex 80.5829929759297 1185.8835450635088 5.661082713714904e-13
    vertex 79.69788480632911 1186.7149881935393 2.143174526736402e-13
  endloop
endfacet
facet normal 0.6593458150999272 0.7019029281239133 -0.2694352901928206
  outer loop
    vertex 80.5829929759297 1185.8835450635088 5.661082713714904e-13
    vertex 79.69788480632918 1201.027012154286 37.28409711377749
    vertex 80.58299297592976 1200.6852202024565 38.559682043623155
  endloop
endfacet
facet normal 0.896872741532633 0.4129120640496484 -0.15850209102090074
  outer loop
    vertex 77.74693004440647 1189.842528206721 3.2288616225173425e-13
    vertex 78.26761720294832 1201.8477687353454 34.22099185261752
    vertex 78.26761720294827 1188.7115607198857 3.0737634659772083e-13
  endloop
endfacet
facet normal 0.896872741532633 0.4129120640496484 -0.15850209102090074
  outer loop
    vertex 78.26761720294832 1201.8477687353454 34.22099185261752
    vertex 77.74693004440647 1189.842528206721 3.2288616225173425e-13
    vertex 77.74693004440651 1202.3126899919164 32.48588210157564
  endloop
endfacet
facet normal 0.19509032201631568 0.9156419403809911 -0.351482009882304
  outer loop
    vertex 83.73247443108558 1200.0013217671615 41.112025751361195
    vertex 84.88711010702771 1183.973882393703 4.624745031378551e-13
    vertex 83.7324744310856 1184.2198936737643 2.227773521212839e-13
  endloop
endfacet
facet normal 0.19509032201631568 0.9156419403809911 -0.351482009882304
  outer loop
    vertex 84.88711010702771 1183.973882393703 4.624745031378551e-13
    vertex 83.73247443108558 1200.0013217671615 41.112025751361195
    vertex 84.88711010702777 1199.900190766679 41.4894517833819
  endloop
endfacet
facet normal 0.8314696123025725 0.5186694950915516 -0.19909856523562522
  outer loop
    vertex 78.26761720294827 1188.7115607198857 3.0737634659772083e-13
    vertex 78.92166577438711 1201.4167511795083 35.829571269955935
    vertex 78.92166577438702 1187.6630673782342 1.402933325067579e-13
  endloop
endfacet
facet normal 0.8314696123025725 0.5186694950915516 -0.19909856523562522
  outer loop
    vertex 78.92166577438711 1201.4167511795083 35.829571269955935
    vertex 78.26761720294827 1188.7115607198857 3.0737634659772083e-13
    vertex 78.26761720294832 1201.8477687353454 34.22099185261752
  endloop
endfacet
facet normal -4.3581809797681716e-16 0.8848706717047575 -0.46583676793139794
  outer loop
    vertex 76.06184583700808 1210.44469705501 0.4393398282204014
    vertex 77.06184583700822 1210.6082429097598 0.7500000000002204
    vertex 77.06184583700822 1210.44469705501 0.4393398282204005
  endloop
endfacet
facet normal -4.3581809797681716e-16 0.8848706717047575 -0.46583676793139794
  outer loop
    vertex 77.06184583700822 1210.6082429097598 0.7500000000002204
    vertex 76.06184583700808 1210.44469705501 0.4393398282204014
    vertex 76.06184583700808 1210.6082429097598 0.7500000000002214
  endloop
endfacet
facet normal -1.597805011419733e-16 0.9873053077137492 -0.15883396790440912
  outer loop
    vertex 76.06184583700808 1210.6082429097598 0.7500000000002214
    vertex 77.06184583700822 1210.666443338366 1.1117714323464387
    vertex 77.06184583700822 1210.6082429097598 0.7500000000002204
  endloop
endfacet
facet normal -1.597805011419733e-16 0.9873053077137492 -0.15883396790440912
  outer loop
    vertex 77.06184583700822 1210.666443338366 1.1117714323464387
    vertex 76.06184583700808 1210.6082429097598 0.7500000000002214
    vertex 76.06184583700808 1210.666443338366 1.1117714323464398
  endloop
endfacet
facet normal -1.2638719451348629e-17 0.991444861373774 -0.1305261922203282
  outer loop
    vertex 95.06184583700824 1201.6103592142802 10.407055236082254
    vertex 96.06184583700824 1201.5830998753113 10.200000000000237
    vertex 95.06184583700824 1201.5830998753113 10.200000000000237
  endloop
endfacet
facet normal -1.2638719451348629e-17 0.991444861373774 -0.1305261922203282
  outer loop
    vertex 96.06184583700824 1201.5830998753113 10.200000000000237
    vertex 95.06184583700824 1201.6103592142802 10.407055236082254
    vertex 96.06184583700824 1201.6103592142802 10.407055236082254
  endloop
endfacet
facet normal 8.6665644511733065e-16 0.9659258262890684 0.25881904510252063
  outer loop
    vertex 76.06184583700808 1210.6153320777996 1.5000000000002218
    vertex 77.06184583700835 1203.8292504047456 26.826001588149325
    vertex 77.06184583700822 1210.6153320777996 1.5000000000002207
  endloop
endfacet
facet normal 8.6665644511733065e-16 0.9659258262890684 0.25881904510252063
  outer loop
    vertex 77.06184583700835 1203.8292504047456 26.826001588149325
    vertex 76.06184583700808 1210.6153320777996 1.5000000000002218
    vertex 76.06184583700808 1203.8292504047456 26.826001588149325
  endloop
endfacet
facet normal 8.6665644511733065e-16 0.9659258262890684 0.25881904510252063
  outer loop
    vertex 77.06184583700835 1203.8292504047456 26.826001588149325
    vertex 76.06184583700808 1203.8292504047456 26.826001588149325
    vertex 76.14739722327015 1203.2545053886108 28.970979189761486
  endloop
endfacet
facet normal 8.6665644511733065e-16 0.9659258262890684 0.25881904510252063
  outer loop
    vertex 77.06184583700835 1203.8292504047456 26.826001588149325
    vertex 76.14739722327015 1203.2545053886108 28.970979189761486
    vertex 77.138842084644 1203.3119798902244 28.75648142959999
  endloop
endfacet
facet normal 8.6665644511733065e-16 0.9659258262890684 0.25881904510252063
  outer loop
    vertex 77.138842084644 1203.3119798902244 28.75648142959999
    vertex 76.14739722327015 1203.2545053886108 28.970979189761486
    vertex 77.36851340040663 1202.803560017621 30.653930225733554
  endloop
endfacet
facet normal 8.6665644511733065e-16 0.9659258262890684 0.25881904510252063
  outer loop
    vertex 77.36851340040663 1202.803560017621 30.653930225733554
    vertex 76.14739722327015 1203.2545053886108 28.970979189761486
    vertex 76.40258757411743 1202.6895944190514 31.07925562990991
  endloop
endfacet
facet normal 8.6665644511733065e-16 0.9659258262890684 0.25881904510252063
  outer loop
    vertex 77.36851340040663 1202.803560017621 30.653930225733554
    vertex 76.40258757411743 1202.6895944190514 31.07925562990991
    vertex 77.74693004440651 1202.3126899919164 32.48588210157564
  endloop
endfacet
facet normal 8.6665644511733065e-16 0.9659258262890684 0.25881904510252063
  outer loop
    vertex 77.74693004440651 1202.3126899919164 32.48588210157564
    vertex 76.40258757411743 1202.6895944190514 31.07925562990991
    vertex 76.82305051189525 1202.1441832793798 33.11475771417872
  endloop
endfacet
facet normal 8.6665644511733065e-16 0.9659258262890684 0.25881904510252063
  outer loop
    vertex 77.74693004440651 1202.3126899919164 32.48588210157564
    vertex 76.82305051189525 1202.1441832793798 33.11475771417872
    vertex 78.26761720294832 1201.8477687353454 34.22099185261752
  endloop
endfacet
facet normal 8.6665644511733065e-16 0.9659258262890684 0.25881904510252063
  outer loop
    vertex 78.26761720294832 1201.8477687353454 34.22099185261752
    vertex 76.82305051189525 1202.1441832793798 33.11475771417872
    vertex 77.40159179916384 1201.627604105412 35.04265743755858
  endloop
endfacet
facet normal 8.6665644511733065e-16 0.9659258262890684 0.25881904510252063
  outer loop
    vertex 78.26761720294832 1201.8477687353454 34.22099185261752
    vertex 77.40159179916384 1201.627604105412 35.04265743755858
    vertex 78.92166577438711 1201.4167511795083 35.829571269955935
  endloop
endfacet
facet normal 8.6665644511733065e-16 0.9659258262890684 0.25881904510252063
  outer loop
    vertex 78.92166577438711 1201.4167511795083 35.829571269955935
    vertex 77.40159179916384 1201.627604105412 35.04265743755858
    vertex 78.12831243409596 1201.1486957100374 36.82996790126786
  endloop
endfacet
facet normal 8.6665644511733065e-16 0.9659258262890684 0.25881904510252063
  outer loop
    vertex 78.92166577438711 1201.4167511795083 35.829571269955935
    vertex 78.12831243409596 1201.1486957100374 36.82996790126786
    vertex 79.69788480632918 1201.027012154286 37.28409711377749
  endloop
endfacet
facet normal 8.6665644511733065e-16 0.9659258262890684 0.25881904510252063
  outer loop
    vertex 79.69788480632918 1201.027012154286 37.28409711377749
    vertex 78.12831243409596 1201.1486957100374 36.82996790126786
    vertex 78.99077802514277 1200.7156523486794 38.44610772773584
  endloop
endfacet
facet normal 8.6665644511733065e-16 0.9659258262890684 0.25881904510252063
  outer loop
    vertex 79.69788480632918 1201.027012154286 37.28409711377749
    vertex 78.99077802514277 1200.7156523486794 38.44610772773584
    vertex 80.58299297592976 1200.6852202024565 38.559682043623155
  endloop
endfacet
facet normal 8.6665644511733065e-16 0.9659258262890684 0.25881904510252063
  outer loop
    vertex 80.58299297592976 1200.6852202024565 38.559682043623155
    vertex 78.99077802514277 1200.7156523486794 38.44610772773584
    vertex 79.97423154692106 1200.3358835133133 39.863424316453376
  endloop
endfacet
facet normal 8.6665644511733065e-16 0.9659258262890684 0.25881904510252063
  outer loop
    vertex 80.58299297592976 1200.6852202024565 38.559682043623155
    vertex 79.97423154692106 1200.3358835133133 39.863424316453376
    vertex 81.56184583700812 1200.397223479078 39.63450044768533
  endloop
endfacet
facet normal 8.6665644511733065e-16 0.9659258262890684 0.25881904510252063
  outer loop
    vertex 81.56184583700812 1200.397223479078 39.63450044768533
    vertex 79.97423154692106 1200.3358835133133 39.863424316453376
    vertex 82.61769494572239 1200.1679496879353 40.49016188507383
  endloop
endfacet
facet normal 8.6665644511733065e-16 0.9659258262890684 0.25881904510252063
  outer loop
    vertex 82.61769494572239 1200.1679496879353 40.49016188507383
    vertex 79.97423154692106 1200.3358835133133 39.863424316453376
    vertex 81.0618458370084 1200.0158871540038 41.057666987633915
  endloop
endfacet
facet normal 8.6665644511733065e-16 0.9659258262890684 0.25881904510252063
  outer loop
    vertex 82.61769494572239 1200.1679496879353 40.49016188507383
    vertex 81.0618458370084 1200.0158871540038 41.057666987633915
    vertex 83.73247443108558 1200.0013217671615 41.112025751361195
  endloop
endfacet
facet normal 8.6665644511733065e-16 0.9659258262890684 0.25881904510252063
  outer loop
    vertex 83.73247443108558 1200.0013217671615 41.112025751361195
    vertex 81.0618458370084 1200.0158871540038 41.057666987633915
    vertex 82.23501151335736 1199.7611384971785 42.00840191806554
  endloop
endfacet
facet normal 8.6665644511733065e-16 0.9659258262890684 0.25881904510252063
  outer loop
    vertex 83.73247443108558 1200.0013217671615 41.112025751361195
    vertex 82.23501151335736 1199.7611384971785 42.00840191806554
    vertex 84.88711010702777 1199.900190766679 41.4894517833819
  endloop
endfacet
facet normal 8.6665644511733065e-16 0.9659258262890684 0.25881904510252063
  outer loop
    vertex 84.88711010702777 1199.900190766679 41.4894517833819
    vertex 82.23501151335736 1199.7611384971785 42.00840191806554
    vertex 86.06184583700818 1199.866287065945 41.61598211708554
  endloop
endfacet
facet normal 8.6665644511733065e-16 0.9659258262890684 0.25881904510252063
  outer loop
    vertex 95.06184583700805 1203.8292504047456 26.82600158814966
    vertex 96.06184583700824 1208.069814749704 11.000000000000233
    vertex 95.06184583700824 1208.069814749704 11.000000000000233
  endloop
endfacet
facet normal 8.6665644511733065e-16 0.9659258262890684 0.25881904510252063
  outer loop
    vertex 96.06184583700824 1208.069814749704 11.000000000000233
    vertex 95.06184583700805 1203.8292504047456 26.82600158814966
    vertex 96.06184583700825 1203.8292504047456 26.82600158814948
  endloop
endfacet
facet normal 8.6665644511733065e-16 0.9659258262890684 0.25881904510252063
  outer loop
    vertex 96.06184583700825 1203.8292504047456 26.82600158814948
    vertex 95.06184583700805 1203.8292504047456 26.82600158814966
    vertex 95.97629445074621 1203.2545053886108 28.970979189761472
  endloop
endfacet
facet normal 8.6665644511733065e-16 0.9659258262890684 0.25881904510252063
  outer loop
    vertex 95.97629445074621 1203.2545053886108 28.970979189761472
    vertex 95.06184583700805 1203.8292504047456 26.82600158814966
    vertex 94.98484958937233 1203.3119798902244 28.756481429600328
  endloop
endfacet
facet normal 8.6665644511733065e-16 0.9659258262890684 0.25881904510252063
  outer loop
    vertex 95.97629445074621 1203.2545053886108 28.970979189761472
    vertex 94.98484958937233 1203.3119798902244 28.756481429600328
    vertex 94.75517827360983 1202.803560017621 30.653930225733543
  endloop
endfacet
facet normal 8.6665644511733065e-16 0.9659258262890684 0.25881904510252063
  outer loop
    vertex 95.97629445074621 1203.2545053886108 28.970979189761472
    vertex 94.75517827360983 1202.803560017621 30.653930225733543
    vertex 95.7211040998988 1202.6895944190514 31.0792556299099
  endloop
endfacet
facet normal 8.6665644511733065e-16 0.9659258262890684 0.25881904510252063
  outer loop
    vertex 95.7211040998988 1202.6895944190514 31.0792556299099
    vertex 94.75517827360983 1202.803560017621 30.653930225733543
    vertex 94.37676162960965 1202.3126899919164 32.485882101575456
  endloop
endfacet
facet normal 8.6665644511733065e-16 0.9659258262890684 0.25881904510252063
  outer loop
    vertex 95.7211040998988 1202.6895944190514 31.0792556299099
    vertex 94.37676162960965 1202.3126899919164 32.485882101575456
    vertex 95.30064116212104 1202.1441832793798 33.11475771417818
  endloop
endfacet
facet normal 8.6665644511733065e-16 0.9659258262890684 0.25881904510252063
  outer loop
    vertex 95.30064116212104 1202.1441832793798 33.11475771417818
    vertex 94.37676162960965 1202.3126899919164 32.485882101575456
    vertex 93.85607447106803 1201.8477687353454 34.220991852617686
  endloop
endfacet
facet normal 8.6665644511733065e-16 0.9659258262890684 0.25881904510252063
  outer loop
    vertex 95.30064116212104 1202.1441832793798 33.11475771417818
    vertex 93.85607447106803 1201.8477687353454 34.220991852617686
    vertex 94.7220998748525 1201.627604105412 35.042657437558226
  endloop
endfacet
facet normal 8.6665644511733065e-16 0.9659258262890684 0.25881904510252063
  outer loop
    vertex 94.7220998748525 1201.627604105412 35.042657437558226
    vertex 93.85607447106803 1201.8477687353454 34.220991852617686
    vertex 93.20202589962932 1201.4167511795083 35.82957126995557
  endloop
endfacet
facet normal 8.6665644511733065e-16 0.9659258262890684 0.25881904510252063
  outer loop
    vertex 94.7220998748525 1201.627604105412 35.042657437558226
    vertex 93.20202589962932 1201.4167511795083 35.82957126995557
    vertex 93.99537923992047 1201.1486957100376 36.829967901267324
  endloop
endfacet
facet normal 8.6665644511733065e-16 0.9659258262890684 0.25881904510252063
  outer loop
    vertex 93.99537923992047 1201.1486957100376 36.829967901267324
    vertex 93.20202589962932 1201.4167511795083 35.82957126995557
    vertex 92.42580686768716 1201.0270121542862 37.28409711377713
  endloop
endfacet
facet normal 8.6665644511733065e-16 0.9659258262890684 0.25881904510252063
  outer loop
    vertex 93.99537923992047 1201.1486957100376 36.829967901267324
    vertex 92.42580686768716 1201.0270121542862 37.28409711377713
    vertex 93.13291364887358 1200.7156523486794 38.446107727736006
  endloop
endfacet
facet normal 8.6665644511733065e-16 0.9659258262890684 0.25881904510252063
  outer loop
    vertex 93.13291364887358 1200.7156523486794 38.446107727736006
    vertex 92.42580686768716 1201.0270121542862 37.28409711377713
    vertex 91.54069869808694 1200.6852202024565 38.559682043622985
  endloop
endfacet
facet normal 8.6665644511733065e-16 0.9659258262890684 0.25881904510252063
  outer loop
    vertex 93.13291364887358 1200.7156523486794 38.446107727736006
    vertex 91.54069869808694 1200.6852202024565 38.559682043622985
    vertex 92.14946012709547 1200.3358835133133 39.86342431645389
  endloop
endfacet
facet normal 8.6665644511733065e-16 0.9659258262890684 0.25881904510252063
  outer loop
    vertex 92.14946012709547 1200.3358835133133 39.86342431645389
    vertex 91.54069869808694 1200.6852202024565 38.559682043622985
    vertex 90.56184583700825 1200.397223479078 39.634500447685504
  endloop
endfacet
facet normal 8.6665644511733065e-16 0.9659258262890684 0.25881904510252063
  outer loop
    vertex 92.14946012709547 1200.3358835133133 39.86342431645389
    vertex 90.56184583700825 1200.397223479078 39.634500447685504
    vertex 89.50599672829397 1200.1679496879353 40.490161885073995
  endloop
endfacet
facet normal 8.6665644511733065e-16 0.9659258262890684 0.25881904510252063
  outer loop
    vertex 92.14946012709547 1200.3358835133133 39.86342431645389
    vertex 89.50599672829397 1200.1679496879353 40.490161885073995
    vertex 91.0618458370081 1200.0158871540036 41.05766698763408
  endloop
endfacet
facet normal 8.6665644511733065e-16 0.9659258262890684 0.25881904510252063
  outer loop
    vertex 91.0618458370081 1200.0158871540036 41.05766698763408
    vertex 89.50599672829397 1200.1679496879353 40.490161885073995
    vertex 88.39121724293076 1200.0013217671615 41.112025751361365
  endloop
endfacet
facet normal 8.6665644511733065e-16 0.9659258262890684 0.25881904510252063
  outer loop
    vertex 91.0618458370081 1200.0158871540036 41.05766698763408
    vertex 88.39121724293076 1200.0013217671615 41.112025751361365
    vertex 89.88868016065906 1199.7611384971785 42.00840191806588
  endloop
endfacet
facet normal 8.6665644511733065e-16 0.9659258262890684 0.25881904510252063
  outer loop
    vertex 89.88868016065906 1199.7611384971785 42.00840191806588
    vertex 88.39121724293076 1200.0013217671615 41.112025751361365
    vertex 87.2365815669886 1199.900190766679 41.4894517833819
  endloop
endfacet
facet normal 8.6665644511733065e-16 0.9659258262890684 0.25881904510252063
  outer loop
    vertex 89.88868016065906 1199.7611384971785 42.00840191806588
    vertex 87.2365815669886 1199.900190766679 41.4894517833819
    vertex 86.06184583700818 1199.866287065945 41.61598211708554
  endloop
endfacet
facet normal 8.6665644511733065e-16 0.9659258262890684 0.25881904510252063
  outer loop
    vertex 89.88868016065906 1199.7611384971785 42.00840191806588
    vertex 86.06184583700818 1199.866287065945 41.61598211708554
    vertex 82.23501151335736 1199.7611384971785 42.00840191806554
  endloop
endfacet
facet normal 8.6665644511733065e-16 0.9659258262890684 0.25881904510252063
  outer loop
    vertex 89.88868016065906 1199.7611384971785 42.00840191806588
    vertex 82.23501151335736 1199.7611384971785 42.00840191806554
    vertex 83.47365538598304 1199.5759963629855 42.69936176949591
  endloop
endfacet
facet normal 8.6665644511733065e-16 0.9659258262890684 0.25881904510252063
  outer loop
    vertex 89.88868016065906 1199.7611384971785 42.00840191806588
    vertex 83.47365538598304 1199.5759963629855 42.69936176949591
    vertex 88.65003628803339 1199.5759963629853 42.69936176949625
  endloop
endfacet
facet normal 8.6665644511733065e-16 0.9659258262890684 0.25881904510252063
  outer loop
    vertex 88.65003628803339 1199.5759963629853 42.69936176949625
    vertex 83.47365538598304 1199.5759963629855 42.69936176949591
    vertex 84.75658391480772 1199.4636285846716 43.11872402729673
  endloop
endfacet
facet normal 8.6665644511733065e-16 0.9659258262890684 0.25881904510252063
  outer loop
    vertex 88.65003628803339 1199.5759963629853 42.69936176949625
    vertex 84.75658391480772 1199.4636285846716 43.11872402729673
    vertex 87.36710775920861 1199.4636285846718 43.11872402729655
  endloop
endfacet
facet normal 8.6665644511733065e-16 0.9659258262890684 0.25881904510252063
  outer loop
    vertex 87.36710775920861 1199.4636285846718 43.11872402729655
    vertex 84.75658391480772 1199.4636285846716 43.11872402729673
    vertex 86.06184583700818 1199.4259578060785 43.25931328696733
  endloop
endfacet
facet normal 4.2936938941322957e-17 0.9659258262890725 0.25881904510250514
  outer loop
    vertex 95.06184583700822 1204.2879606937806 2.649392528520348e-13
    vertex 96.06184583700824 1201.6103592142802 9.992944763918223
    vertex 96.06184583700822 1204.2879606937806 2.6444454095797365e-13
  endloop
endfacet
facet normal 4.2936938941322957e-17 0.9659258262890725 0.25881904510250514
  outer loop
    vertex 96.06184583700824 1201.6103592142802 9.992944763918223
    vertex 95.06184583700822 1204.2879606937806 2.649392528520348e-13
    vertex 95.06184583700824 1201.6103592142802 9.992944763918223
  endloop
endfacet
facet normal -2.596038643718e-16 0.7933533402912463 -0.6087614290087063
  outer loop
    vertex 95.06184583700824 1201.817414450362 10.765685424949472
    vertex 96.06184583700824 1201.6902795522838 10.600000000000236
    vertex 95.06184583700824 1201.6902795522838 10.600000000000236
  endloop
endfacet
facet normal -2.596038643718e-16 0.7933533402912463 -0.6087614290087063
  outer loop
    vertex 96.06184583700824 1201.6902795522838 10.600000000000236
    vertex 95.06184583700824 1201.817414450362 10.765685424949472
    vertex 96.06184583700824 1201.817414450362 10.765685424949472
  endloop
endfacet
facet normal 1.1650700010447643e-16 0.991444861373774 0.1305261922203282
  outer loop
    vertex 95.06184583700824 1201.5830998753113 10.200000000000237
    vertex 96.06184583700824 1201.6103592142802 9.992944763918223
    vertex 95.06184583700824 1201.6103592142802 9.992944763918223
  endloop
endfacet
facet normal 1.1650700010447643e-16 0.991444861373774 0.1305261922203282
  outer loop
    vertex 96.06184583700824 1201.6103592142802 9.992944763918223
    vertex 95.06184583700824 1201.5830998753113 10.200000000000237
    vertex 96.06184583700824 1201.5830998753113 10.200000000000237
  endloop
endfacet
facet normal -1.4092313116266805e-16 0.9238795325112583 -0.38268343236515817
  outer loop
    vertex 95.06184583700824 1201.6902795522838 10.600000000000236
    vertex 96.06184583700824 1201.6103592142802 10.407055236082254
    vertex 95.06184583700824 1201.6103592142802 10.407055236082254
  endloop
endfacet
facet normal -1.4092313116266805e-16 0.9238795325112583 -0.38268343236515817
  outer loop
    vertex 96.06184583700824 1201.6103592142802 10.407055236082254
    vertex 95.06184583700824 1201.6902795522838 10.600000000000236
    vertex 96.06184583700824 1201.6902795522838 10.600000000000236
  endloop
endfacet
facet normal 1.0 3.1569635007898586e-17 -7.61762386667823e-16
  outer loop
    vertex 96.06184583700822 1193.5317131912523 3.623656930074048e-13
    vertex 96.06184583700824 1201.6103592142802 9.992944763918223
    vertex 96.06184583700824 1201.5830998753113 10.200000000000237
  endloop
endfacet
facet normal 1.0 3.1569635007898586e-17 -7.61762386667823e-16
  outer loop
    vertex 96.06184583700824 1201.6103592142802 9.992944763918223
    vertex 96.06184583700822 1193.5317131912523 3.623656930074048e-13
    vertex 96.06184583700822 1204.2879606937806 2.6444454095797365e-13
  endloop
endfacet
facet normal 1.0 3.1569635007898586e-17 -7.61762386667823e-16
  outer loop
    vertex 96.06184583700822 1193.5317131912523 3.623656930074048e-13
    vertex 96.06184583700824 1201.6103592142802 10.407055236082254
    vertex 96.06184583700825 1203.8292504047456 26.82600158814948
  endloop
endfacet
facet normal 1.0 3.1569635007898586e-17 -7.61762386667823e-16
  outer loop
    vertex 96.06184583700824 1201.6103592142802 10.407055236082254
    vertex 96.06184583700822 1193.5317131912523 3.623656930074048e-13
    vertex 96.06184583700824 1201.5830998753113 10.200000000000237
  endloop
endfacet
facet normal 1.0 3.1569635007898586e-17 -7.61762386667823e-16
  outer loop
    vertex 96.06184583700825 1203.8292504047456 26.82600158814948
    vertex 96.06184583700824 1201.6103592142802 10.407055236082254
    vertex 96.06184583700824 1201.6902795522838 10.600000000000236
  endloop
endfacet
facet normal 1.0 3.1569635007898586e-17 -7.61762386667823e-16
  outer loop
    vertex 96.06184583700825 1203.8292504047456 26.82600158814948
    vertex 96.06184583700824 1201.6902795522838 10.600000000000236
    vertex 96.06184583700824 1201.817414450362 10.765685424949472
  endloop
endfacet
facet normal 1.0 3.1569635007898586e-17 -7.61762386667823e-16
  outer loop
    vertex 96.06184583700825 1203.8292504047456 26.82600158814948
    vertex 96.06184583700824 1201.817414450362 10.765685424949472
    vertex 96.06184583700824 1201.9830998753114 10.892820323027784
  endloop
endfacet
facet normal 1.0 3.1569635007898586e-17 -7.61762386667823e-16
  outer loop
    vertex 96.06184583700825 1203.8292504047456 26.82600158814948
    vertex 96.06184583700824 1201.9830998753114 10.892820323027784
    vertex 96.06184583700824 1202.1760446392293 10.972740661031487
  endloop
endfacet
facet normal 1.0 3.1569635007898586e-17 -7.61762386667823e-16
  outer loop
    vertex 96.06184583700825 1203.8292504047456 26.82600158814948
    vertex 96.06184583700824 1202.1760446392293 10.972740661031487
    vertex 96.06184583700824 1202.3830998753112 11.000000000000233
  endloop
endfacet
facet normal 1.0 3.1569635007898586e-17 -7.61762386667823e-16
  outer loop
    vertex 96.06184583700825 1203.8292504047456 26.82600158814948
    vertex 96.06184583700824 1202.3830998753112 11.000000000000233
    vertex 96.06184583700824 1208.069814749704 11.000000000000233
  endloop
endfacet
facet normal 0.06540312923008508 0.9315815591411373 -0.357600656256502
  outer loop
    vertex 84.88711010702771 1183.973882393703 4.624745031378551e-13
    vertex 86.06184583700818 1199.866287065945 41.61598211708554
    vertex 86.06184583700812 1183.8914082485192 4.39914771277472e-13
  endloop
endfacet
facet normal 0.06540312923008508 0.9315815591411373 -0.357600656256502
  outer loop
    vertex 86.06184583700818 1199.866287065945 41.61598211708554
    vertex 84.88711010702771 1183.973882393703 4.624745031378551e-13
    vertex 84.88711010702777 1199.900190766679 41.4894517833819
  endloop
endfacet
facet normal -0.06540312923008604 0.9315815591411372 -0.3576006562565017
  outer loop
    vertex 86.06184583700818 1199.866287065945 41.61598211708554
    vertex 87.23658156698855 1183.973882393703 4.638844863791292e-13
    vertex 86.06184583700812 1183.8914082485192 4.39914771277472e-13
  endloop
endfacet
facet normal -0.06540312923008604 0.9315815591411372 -0.3576006562565017
  outer loop
    vertex 87.23658156698855 1183.973882393703 4.638844863791292e-13
    vertex 86.06184583700818 1199.866287065945 41.61598211708554
    vertex 87.2365815669886 1199.900190766679 41.4894517833819
  endloop
endfacet
facet normal -3.6059302323973613e-16 0.60876142900867 -0.7933533402912739
  outer loop
    vertex 96.06184583700824 1201.9830998753114 10.892820323027784
    vertex 95.06184583700824 1201.817414450362 10.765685424949472
    vertex 95.06184583700824 1201.9830998753114 10.892820323027784
  endloop
endfacet
facet normal -3.6059302323973613e-16 0.60876142900867 -0.7933533402912739
  outer loop
    vertex 95.06184583700824 1201.817414450362 10.765685424949472
    vertex 96.06184583700824 1201.9830998753114 10.892820323027784
    vertex 96.06184583700824 1201.817414450362 10.765685424949472
  endloop
endfacet
facet normal 0.9978589232386059 0.06105908128089462 -0.023438385316040505
  outer loop
    vertex 77.06184583700832 1193.5317131912523 3.821054583852401e-13
    vertex 77.138842084644 1203.3119798902244 28.75648142959999
    vertex 77.13884208464398 1192.2734008952373 2.693067990833242e-13
  endloop
endfacet
facet normal 0.9978589232386059 0.06105908128089462 -0.023438385316040505
  outer loop
    vertex 77.138842084644 1203.3119798902244 28.75648142959999
    vertex 77.06184583700832 1193.5317131912523 3.821054583852401e-13
    vertex 77.06184583700835 1203.8292504047456 26.826001588149325
  endloop
endfacet
facet normal -0.8968727415327056 0.4129120640495126 -0.15850209102084534
  outer loop
    vertex 93.85607447106803 1201.8477687353454 34.220991852617686
    vertex 94.3767616296096 1189.842528206721 3.1160629632154267e-13
    vertex 93.85607447106796 1188.7115607198857 1.0433875985427221e-13
  endloop
endfacet
facet normal -0.8968727415327056 0.4129120640495126 -0.15850209102084534
  outer loop
    vertex 94.3767616296096 1189.842528206721 3.1160629632154267e-13
    vertex 93.85607447106803 1201.8477687353454 34.220991852617686
    vertex 94.37676162960965 1202.3126899919164 32.485882101575456
  endloop
endfacet
facet normal 0.4422886902188 0.8373028365538943 -0.32141044538617747
  outer loop
    vertex 81.56184583700805 1185.1829642106168 5.992428775414282e-13
    vertex 82.61769494572239 1200.1679496879353 40.49016188507383
    vertex 82.61769494572242 1184.625232767494 2.9468649742625527e-13
  endloop
endfacet
facet normal 0.4422886902188 0.8373028365538943 -0.32141044538617747
  outer loop
    vertex 82.61769494572239 1200.1679496879353 40.49016188507383
    vertex 81.56184583700805 1185.1829642106168 5.992428775414282e-13
    vertex 81.56184583700812 1200.397223479078 39.63450044768533
  endloop
endfacet
facet normal 1.2333270194083847e-15 -6.2754286221657235e-15 -1.0
  outer loop
    vertex 76.06184583700808 1209.464341595831 2.303138835913864e-13
    vertex 76.14739722327008 1192.1335884179023 2.4674706722294104e-13
    vertex 76.06184583700806 1193.5317131912523 3.7999048352332916e-13
  endloop
endfacet
facet normal 1.2333270194083847e-15 -6.2754286221657235e-15 -1.0
  outer loop
    vertex 76.14739722327008 1192.1335884179023 2.4674706722294104e-13
    vertex 76.06184583700808 1209.464341595831 2.303138835913864e-13
    vertex 77.06184583700824 1209.464341595831 2.297475768918771e-13
  endloop
endfacet
facet normal 1.2333270194083847e-15 -6.2754286221657235e-15 -1.0
  outer loop
    vertex 76.14739722327008 1192.1335884179023 2.4674706722294104e-13
    vertex 77.06184583700824 1209.464341595831 2.297475768918771e-13
    vertex 76.40258757411729 1190.7593859470576 2.9327651418498134e-13
  endloop
endfacet
facet normal 1.2333270194083847e-15 -6.2754286221657235e-15 -1.0
  outer loop
    vertex 76.40258757411729 1190.7593859470576 2.9327651418498134e-13
    vertex 77.06184583700824 1209.464341595831 2.297475768918771e-13
    vertex 76.82305051189512 1189.4326187639954 3.3134606169937797e-13
  endloop
endfacet
facet normal 1.2333270194083847e-15 -6.2754286221657235e-15 -1.0
  outer loop
    vertex 76.82305051189512 1189.4326187639954 3.3134606169937797e-13
    vertex 77.06184583700824 1209.464341595831 2.297475768918771e-13
    vertex 77.06184583700832 1193.5317131912523 3.821054583852401e-13
  endloop
endfacet
facet normal 1.2333270194083847e-15 -6.2754286221657235e-15 -1.0
  outer loop
    vertex 76.82305051189512 1189.4326187639954 3.3134606169937797e-13
    vertex 77.06184583700832 1193.5317131912523 3.821054583852401e-13
    vertex 77.13884208464398 1192.2734008952373 2.693067990833242e-13
  endloop
endfacet
facet normal 1.2333270194083847e-15 -6.2754286221657235e-15 -1.0
  outer loop
    vertex 76.82305051189512 1189.4326187639954 3.3134606169937797e-13
    vertex 77.13884208464398 1192.2734008952373 2.693067990833242e-13
    vertex 77.40159179916375 1188.1759882230672 3.8422043324715105e-13
  endloop
endfacet
facet normal 1.2333270194083847e-15 -6.2754286221657235e-15 -1.0
  outer loop
    vertex 77.40159179916375 1188.1759882230672 3.8422043324715105e-13
    vertex 77.13884208464398 1192.2734008952373 2.693067990833242e-13
    vertex 77.36851340040658 1191.036618671477 3.080813382183578e-13
  endloop
endfacet
facet normal 1.2333270194083847e-15 -6.2754286221657235e-15 -1.0
  outer loop
    vertex 77.40159179916375 1188.1759882230672 3.8422043324715105e-13
    vertex 77.36851340040658 1191.036618671477 3.080813382183578e-13
    vertex 77.74693004440647 1189.842528206721 3.2288616225173425e-13
  endloop
endfacet
facet normal 1.2333270194083847e-15 -6.2754286221657235e-15 -1.0
  outer loop
    vertex 77.40159179916375 1188.1759882230672 3.8422043324715105e-13
    vertex 77.74693004440647 1189.842528206721 3.2288616225173425e-13
    vertex 78.12831243409588 1187.0109956212323 1.6919798895287386e-13
  endloop
endfacet
facet normal 1.2333270194083847e-15 -6.2754286221657235e-15 -1.0
  outer loop
    vertex 78.12831243409588 1187.0109956212323 1.6919798895287386e-13
    vertex 77.74693004440647 1189.842528206721 3.2288616225173425e-13
    vertex 78.26761720294827 1188.7115607198857 3.0737634659772083e-13
  endloop
endfacet
facet normal 1.2333270194083847e-15 -6.2754286221657235e-15 -1.0
  outer loop
    vertex 78.12831243409588 1187.0109956212323 1.6919798895287386e-13
    vertex 78.26761720294827 1188.7115607198857 3.0737634659772083e-13
    vertex 78.99077802514276 1185.9575743049047 1.7836288002115452e-13
  endloop
endfacet
facet normal 1.2333270194083847e-15 -6.2754286221657235e-15 -1.0
  outer loop
    vertex 78.99077802514276 1185.9575743049047 1.7836288002115452e-13
    vertex 78.26761720294827 1188.7115607198857 3.0737634659772083e-13
    vertex 78.92166577438702 1187.6630673782342 1.402933325067579e-13
  endloop
endfacet
facet normal 1.2333270194083847e-15 -6.2754286221657235e-15 -1.0
  outer loop
    vertex 78.99077802514276 1185.9575743049047 1.7836288002115452e-13
    vertex 78.92166577438702 1187.6630673782342 1.402933325067579e-13
    vertex 79.69788480632911 1186.7149881935393 2.143174526736402e-13
  endloop
endfacet
facet normal 1.2333270194083847e-15 -6.2754286221657235e-15 -1.0
  outer loop
    vertex 78.99077802514276 1185.9575743049047 1.7836288002115452e-13
    vertex 79.69788480632911 1186.7149881935393 2.143174526736402e-13
    vertex 79.974231546921 1185.0337486048709 3.468558773533914e-13
  endloop
endfacet
facet normal 1.2333270194083847e-15 -6.2754286221657235e-15 -1.0
  outer loop
    vertex 79.974231546921 1185.0337486048709 3.468558773533914e-13
    vertex 79.69788480632911 1186.7149881935393 2.143174526736402e-13
    vertex 80.5829929759297 1185.8835450635088 5.661082713714904e-13
  endloop
endfacet
facet normal 1.2333270194083847e-15 -6.2754286221657235e-15 -1.0
  outer loop
    vertex 79.974231546921 1185.0337486048709 3.468558773533914e-13
    vertex 80.5829929759297 1185.8835450635088 5.661082713714904e-13
    vertex 81.0618458370082 1184.2553254349907 5.174638495475392e-13
  endloop
endfacet
facet normal 1.2333270194083847e-15 -6.2754286221657235e-15 -1.0
  outer loop
    vertex 81.0618458370082 1184.2553254349907 5.174638495475392e-13
    vertex 80.5829929759297 1185.8835450635088 5.661082713714904e-13
    vertex 81.56184583700805 1185.1829642106168 5.992428775414282e-13
  endloop
endfacet
facet normal 1.2333270194083847e-15 -6.2754286221657235e-15 -1.0
  outer loop
    vertex 81.0618458370082 1184.2553254349907 5.174638495475392e-13
    vertex 81.56184583700805 1185.1829642106168 5.992428775414282e-13
    vertex 82.23501151335739 1183.6356238315207 1.127986593019159e-14
  endloop
endfacet
facet normal 1.2333270194083847e-15 -6.2754286221657235e-15 -1.0
  outer loop
    vertex 82.23501151335739 1183.6356238315207 1.127986593019159e-14
    vertex 81.56184583700805 1185.1829642106168 5.992428775414282e-13
    vertex 82.61769494572242 1184.625232767494 2.9468649742625527e-13
  endloop
endfacet
facet normal 1.2333270194083847e-15 -6.2754286221657235e-15 -1.0
  outer loop
    vertex 82.23501151335739 1183.6356238315207 1.127986593019159e-14
    vertex 82.61769494572242 1184.625232767494 2.9468649742625527e-13
    vertex 83.47365538598307 1183.18524706071 1.071587263368201e-13
  endloop
endfacet
facet normal 1.2333270194083847e-15 -6.2754286221657235e-15 -1.0
  outer loop
    vertex 83.47365538598307 1183.18524706071 1.071587263368201e-13
    vertex 82.61769494572242 1184.625232767494 2.9468649742625527e-13
    vertex 83.7324744310856 1184.2198936737643 2.227773521212839e-13
  endloop
endfacet
facet normal 1.2333270194083847e-15 -6.2754286221657235e-15 -1.0
  outer loop
    vertex 83.47365538598307 1183.18524706071 1.071587263368201e-13
    vertex 83.7324744310856 1184.2198936737643 2.227773521212839e-13
    vertex 84.75658391480769 1182.9119011939752 4.638844863791292e-13
  endloop
endfacet
facet normal 1.2333270194083847e-15 -6.2754286221657235e-15 -1.0
  outer loop
    vertex 84.75658391480769 1182.9119011939752 4.638844863791292e-13
    vertex 83.7324744310856 1184.2198936737643 2.227773521212839e-13
    vertex 84.88711010702771 1183.973882393703 4.624745031378551e-13
  endloop
endfacet
facet normal 1.2333270194083847e-15 -6.2754286221657235e-15 -1.0
  outer loop
    vertex 84.75658391480769 1182.9119011939752 4.638844863791292e-13
    vertex 84.88711010702771 1183.973882393703 4.624745031378551e-13
    vertex 86.06184583700814 1182.8202632548823 5.851430451286888e-13
  endloop
endfacet
facet normal 1.2333270194083847e-15 -6.2754286221657235e-15 -1.0
  outer loop
    vertex 86.06184583700814 1182.8202632548823 5.851430451286888e-13
    vertex 84.88711010702771 1183.973882393703 4.624745031378551e-13
    vertex 86.06184583700812 1183.8914082485192 4.39914771277472e-13
  endloop
endfacet
facet normal 1.2333270194083847e-15 -6.2754286221657235e-15 -1.0
  outer loop
    vertex 86.06184583700814 1182.8202632548823 5.851430451286888e-13
    vertex 86.06184583700812 1183.8914082485192 4.39914771277472e-13
    vertex 87.23658156698855 1183.973882393703 4.638844863791292e-13
  endloop
endfacet
facet normal 1.2333270194083847e-15 -6.2754286221657235e-15 -1.0
  outer loop
    vertex 86.06184583700814 1182.8202632548823 5.851430451286888e-13
    vertex 87.23658156698855 1183.973882393703 4.638844863791292e-13
    vertex 87.36710775920857 1182.9119011939754 5.033640171347997e-13
  endloop
endfacet
facet normal 1.2333270194083847e-15 -6.2754286221657235e-15 -1.0
  outer loop
    vertex 87.36710775920857 1182.9119011939754 5.033640171347997e-13
    vertex 87.23658156698855 1183.973882393703 4.638844863791292e-13
    vertex 88.39121724293075 1184.219893673764 3.2006619576918634e-13
  endloop
endfacet
facet normal 1.2333270194083847e-15 -6.2754286221657235e-15 -1.0
  outer loop
    vertex 87.36710775920857 1182.9119011939754 5.033640171347997e-13
    vertex 88.39121724293075 1184.219893673764 3.2006619576918634e-13
    vertex 88.65003628803335 1183.1852470607098 3.990252572805275e-13
  endloop
endfacet
facet normal 1.2333270194083847e-15 -6.2754286221657235e-15 -1.0
  outer loop
    vertex 88.65003628803335 1183.1852470607098 3.990252572805275e-13
    vertex 88.39121724293075 1184.219893673764 3.2006619576918634e-13
    vertex 89.50599672829394 1184.6252327674938 2.1290746943236625e-13
  endloop
endfacet
facet normal 1.2333270194083847e-15 -6.2754286221657235e-15 -1.0
  outer loop
    vertex 88.65003628803335 1183.1852470607098 3.990252572805275e-13
    vertex 89.50599672829394 1184.6252327674938 2.1290746943236625e-13
    vertex 89.88868016065902 1183.6356238315204 2.989164471500771e-13
  endloop
endfacet
facet normal 1.2333270194083847e-15 -6.2754286221657235e-15 -1.0
  outer loop
    vertex 89.88868016065902 1183.6356238315204 2.989164471500771e-13
    vertex 89.50599672829394 1184.6252327674938 2.1290746943236625e-13
    vertex 90.56184583700826 1185.1829642106168 5.809130954048669e-13
  endloop
endfacet
facet normal 1.2333270194083847e-15 -6.2754286221657235e-15 -1.0
  outer loop
    vertex 89.88868016065902 1183.6356238315204 2.989164471500771e-13
    vertex 90.56184583700826 1185.1829642106168 5.809130954048669e-13
    vertex 91.06184583700815 1184.2553254349903 4.4696468748384173e-13
  endloop
endfacet
facet normal 1.2333270194083847e-15 -6.2754286221657235e-15 -1.0
  outer loop
    vertex 91.06184583700815 1184.2553254349903 4.4696468748384173e-13
    vertex 90.56184583700826 1185.1829642106168 5.809130954048669e-13
    vertex 91.5406986980865 1185.8835450635088 5.795031121635929e-13
  endloop
endfacet
facet normal 1.2333270194083847e-15 -6.2754286221657235e-15 -1.0
  outer loop
    vertex 91.06184583700815 1184.2553254349903 4.4696468748384173e-13
    vertex 91.5406986980865 1185.8835450635088 5.795031121635929e-13
    vertex 92.14946012709535 1185.0337486048707 4.822142685156905e-13
  endloop
endfacet
facet normal 1.2333270194083847e-15 -6.2754286221657235e-15 -1.0
  outer loop
    vertex 92.14946012709535 1185.0337486048707 4.822142685156905e-13
    vertex 91.5406986980865 1185.8835450635088 5.795031121635929e-13
    vertex 92.42580686768711 1186.7149881935393 4.1735503941708883e-13
  endloop
endfacet
facet normal 1.2333270194083847e-15 -6.2754286221657235e-15 -1.0
  outer loop
    vertex 92.14946012709535 1185.0337486048707 4.822142685156905e-13
    vertex 92.42580686768711 1186.7149881935393 4.1735503941708883e-13
    vertex 93.13291364887354 1185.9575743049047 3.5672576004230904e-13
  endloop
endfacet
facet normal 1.2333270194083847e-15 -6.2754286221657235e-15 -1.0
  outer loop
    vertex 93.13291364887354 1185.9575743049047 3.5672576004230904e-13
    vertex 92.42580686768711 1186.7149881935393 4.1735503941708883e-13
    vertex 93.2020258996292 1187.6630673782342 3.391009695263847e-13
  endloop
endfacet
facet normal 1.2333270194083847e-15 -6.2754286221657235e-15 -1.0
  outer loop
    vertex 93.13291364887354 1185.9575743049047 3.5672576004230904e-13
    vertex 93.2020258996292 1187.6630673782342 3.391009695263847e-13
    vertex 93.99537923992035 1187.0109956212323 3.4756086897402835e-13
  endloop
endfacet
facet normal 1.2333270194083847e-15 -6.2754286221657235e-15 -1.0
  outer loop
    vertex 93.99537923992035 1187.0109956212323 3.4756086897402835e-13
    vertex 93.2020258996292 1187.6630673782342 3.391009695263847e-13
    vertex 93.85607447106796 1188.7115607198857 1.0433875985427221e-13
  endloop
endfacet
facet normal 1.2333270194083847e-15 -6.2754286221657235e-15 -1.0
  outer loop
    vertex 93.99537923992035 1187.0109956212323 3.4756086897402835e-13
    vertex 93.85607447106796 1188.7115607198857 1.0433875985427221e-13
    vertex 94.3767616296096 1189.842528206721 3.1160629632154267e-13
  endloop
endfacet
facet normal 1.2333270194083847e-15 -6.2754286221657235e-15 -1.0
  outer loop
    vertex 93.99537923992035 1187.0109956212323 3.4756086897402835e-13
    vertex 94.3767616296096 1189.842528206721 3.1160629632154267e-13
    vertex 94.72209987485247 1188.1759882230672 3.7787550866141827e-13
  endloop
endfacet
facet normal 1.2333270194083847e-15 -6.2754286221657235e-15 -1.0
  outer loop
    vertex 94.72209987485247 1188.1759882230672 3.7787550866141827e-13
    vertex 94.3767616296096 1189.842528206721 3.1160629632154267e-13
    vertex 94.75517827360979 1191.036618671477 2.8552160635797463e-13
  endloop
endfacet
facet normal 1.2333270194083847e-15 -6.2754286221657235e-15 -1.0
  outer loop
    vertex 94.72209987485247 1188.1759882230672 3.7787550866141827e-13
    vertex 94.75517827360979 1191.036618671477 2.8552160635797463e-13
    vertex 95.30064116212091 1189.4326187639954 1.4663825709249067e-13
  endloop
endfacet
facet normal 1.2333270194083847e-15 -6.2754286221657235e-15 -1.0
  outer loop
    vertex 95.30064116212091 1189.4326187639954 1.4663825709249067e-13
    vertex 94.75517827360979 1191.036618671477 2.8552160635797463e-13
    vertex 94.98484958937232 1192.2734008952373 2.460420756023041e-13
  endloop
endfacet
facet normal 1.2333270194083847e-15 -6.2754286221657235e-15 -1.0
  outer loop
    vertex 95.30064116212091 1189.4326187639954 1.4663825709249067e-13
    vertex 94.98484958937232 1192.2734008952373 2.460420756023041e-13
    vertex 95.06184583700804 1193.5317131912523 3.623656930074048e-13
  endloop
endfacet
facet normal 1.2333270194083847e-15 -6.2754286221657235e-15 -1.0
  outer loop
    vertex 95.30064116212091 1189.4326187639954 1.4663825709249067e-13
    vertex 95.06184583700804 1193.5317131912523 3.623656930074048e-13
    vertex 95.06184583700822 1204.2879606937806 2.649392528520348e-13
  endloop
endfacet
facet normal 1.2333270194083847e-15 -6.2754286221657235e-15 -1.0
  outer loop
    vertex 95.30064116212091 1189.4326187639954 1.4663825709249067e-13
    vertex 95.06184583700822 1204.2879606937806 2.649392528520348e-13
    vertex 96.06184583700822 1204.2879606937806 2.6444454095797365e-13
  endloop
endfacet
facet normal 1.2333270194083847e-15 -6.2754286221657235e-15 -1.0
  outer loop
    vertex 95.30064116212091 1189.4326187639954 1.4663825709249067e-13
    vertex 96.06184583700822 1204.2879606937806 2.6444454095797365e-13
    vertex 95.72110409989882 1190.7593859470576 2.890465644611595e-13
  endloop
endfacet
facet normal 1.2333270194083847e-15 -6.2754286221657235e-15 -1.0
  outer loop
    vertex 95.72110409989882 1190.7593859470576 2.890465644611595e-13
    vertex 96.06184583700822 1204.2879606937806 2.6444454095797365e-13
    vertex 95.97629445074618 1192.1335884179023 2.305322599482906e-13
  endloop
endfacet
facet normal 1.2333270194083847e-15 -6.2754286221657235e-15 -1.0
  outer loop
    vertex 95.97629445074618 1192.1335884179023 2.305322599482906e-13
    vertex 96.06184583700822 1204.2879606937806 2.6444454095797365e-13
    vertex 96.06184583700822 1193.5317131912523 3.623656930074048e-13
  endloop
endfacet
facet normal -5.841375197166586e-16 0.6789851472698961 -0.7341520072756578
  outer loop
    vertex 77.06184583700822 1210.44469705501 0.4393398282204005
    vertex 76.06184583700808 1210.1869511538453 0.20096189432356656
    vertex 76.06184583700808 1210.44469705501 0.4393398282204014
  endloop
endfacet
facet normal -5.841375197166586e-16 0.6789851472698961 -0.7341520072756578
  outer loop
    vertex 76.06184583700808 1210.1869511538453 0.20096189432356656
    vertex 77.06184583700822 1210.44469705501 0.4393398282204005
    vertex 77.06184583700822 1210.1869511538453 0.20096189432356584
  endloop
endfacet
facet normal 0.32143946530313916 0.8840354341570997 -0.3393494088698263
  outer loop
    vertex 82.61769494572242 1184.625232767494 2.9468649742625527e-13
    vertex 83.73247443108558 1200.0013217671615 41.112025751361195
    vertex 83.7324744310856 1184.2198936737643 2.227773521212839e-13
  endloop
endfacet
facet normal 0.32143946530313916 0.8840354341570997 -0.3393494088698263
  outer loop
    vertex 83.73247443108558 1200.0013217671615 41.112025751361195
    vertex 82.61769494572242 1184.625232767494 2.9468649742625527e-13
    vertex 82.61769494572239 1200.1679496879353 40.49016188507383
  endloop
endfacet
facet normal -0.9469301294951027 -0.30008959311076544 0.11519360208363652
  outer loop
    vertex 76.82305051189525 1202.1441832793798 33.11475771417872
    vertex 76.40258757411729 1190.7593859470576 2.9327651418498134e-13
    vertex 76.82305051189512 1189.4326187639954 3.3134606169937797e-13
  endloop
endfacet
facet normal -0.9469301294951027 -0.30008959311076544 0.11519360208363652
  outer loop
    vertex 76.40258757411729 1190.7593859470576 2.9327651418498134e-13
    vertex 76.82305051189525 1202.1441832793798 33.11475771417872
    vertex 76.40258757411743 1202.6895944190514 31.07925562990991
  endloop
endfacet
facet normal 0.1950903220159668 -0.9156419403810555 0.3514820098823298
  outer loop
    vertex 88.65003628803339 1199.5759963629853 42.69936176949625
    vertex 87.36710775920857 1182.9119011939754 5.033640171347997e-13
    vertex 88.65003628803335 1183.1852470607098 3.990252572805275e-13
  endloop
endfacet
facet normal 0.1950903220159668 -0.9156419403810555 0.3514820098823298
  outer loop
    vertex 87.36710775920857 1182.9119011939754 5.033640171347997e-13
    vertex 88.65003628803339 1199.5759963629853 42.69936176949625
    vertex 87.36710775920861 1199.4636285846718 43.11872402729655
  endloop
endfacet
facet normal 1.0 5.512007960733945e-15 -3.164068780588197e-15
  outer loop
    vertex 77.06184583700824 1209.464341595831 2.297475768918771e-13
    vertex 77.06184583700835 1203.8292504047456 26.826001588149325
    vertex 77.06184583700832 1193.5317131912523 3.821054583852401e-13
  endloop
endfacet
facet normal 1.0 5.512007960733945e-15 -3.164068780588197e-15
  outer loop
    vertex 77.06184583700835 1203.8292504047456 26.826001588149325
    vertex 77.06184583700824 1209.464341595831 2.297475768918771e-13
    vertex 77.06184583700822 1210.6153320777996 1.5000000000002207
  endloop
endfacet
facet normal 1.0 5.512007960733945e-15 -3.164068780588197e-15
  outer loop
    vertex 77.06184583700822 1210.6153320777996 1.5000000000002207
    vertex 77.06184583700824 1209.464341595831 2.297475768918771e-13
    vertex 77.06184583700822 1209.8525701634849 0.05111126056662411
  endloop
endfacet
facet normal 1.0 5.512007960733945e-15 -3.164068780588197e-15
  outer loop
    vertex 77.06184583700822 1210.6153320777996 1.5000000000002207
    vertex 77.06184583700822 1209.8525701634849 0.05111126056662411
    vertex 77.06184583700822 1210.1869511538453 0.20096189432356584
  endloop
endfacet
facet normal 1.0 5.512007960733945e-15 -3.164068780588197e-15
  outer loop
    vertex 77.06184583700822 1210.6153320777996 1.5000000000002207
    vertex 77.06184583700822 1210.1869511538453 0.20096189432356584
    vertex 77.06184583700822 1210.44469705501 0.4393398282204005
  endloop
endfacet
facet normal 1.0 5.512007960733945e-15 -3.164068780588197e-15
  outer loop
    vertex 77.06184583700822 1210.6153320777996 1.5000000000002207
    vertex 77.06184583700822 1210.44469705501 0.4393398282204005
    vertex 77.06184583700822 1210.6082429097598 0.7500000000002204
  endloop
endfacet
facet normal 1.0 5.512007960733945e-15 -3.164068780588197e-15
  outer loop
    vertex 77.06184583700822 1210.6153320777996 1.5000000000002207
    vertex 77.06184583700822 1210.6082429097598 0.7500000000002204
    vertex 77.06184583700822 1210.666443338366 1.1117714323464387
  endloop
endfacet
facet normal -0.6593458151000078 -0.7019029281238479 0.2694352901927936
  outer loop
    vertex 79.974231546921 1185.0337486048709 3.468558773533914e-13
    vertex 78.99077802514277 1200.7156523486794 38.44610772773584
    vertex 78.99077802514276 1185.9575743049047 1.7836288002115452e-13
  endloop
endfacet
facet normal -0.6593458151000078 -0.7019029281238479 0.2694352901927936
  outer loop
    vertex 78.99077802514277 1200.7156523486794 38.44610772773584
    vertex 79.974231546921 1185.0337486048709 3.468558773533914e-13
    vertex 79.97423154692106 1200.3358835133133 39.863424316453376
  endloop
endfacet
facet normal 0.9978589232385964 -0.06105908128103056 0.023438385316090854
  outer loop
    vertex 96.06184583700822 1193.5317131912523 3.623656930074048e-13
    vertex 95.97629445074621 1203.2545053886108 28.970979189761472
    vertex 95.97629445074618 1192.1335884179023 2.305322599482906e-13
  endloop
endfacet
facet normal 0.9978589232385964 -0.06105908128103056 0.023438385316090854
  outer loop
    vertex 95.97629445074621 1203.2545053886108 28.970979189761472
    vertex 96.06184583700822 1193.5317131912523 3.623656930074048e-13
    vertex 96.06184583700825 1203.8292504047456 26.82600158814948
  endloop
endfacet
facet normal -0.8968727415326534 -0.41291206404960984 0.1585020910208865
  outer loop
    vertex 77.40159179916384 1201.627604105412 35.04265743755858
    vertex 76.82305051189512 1189.4326187639954 3.3134606169937797e-13
    vertex 77.40159179916375 1188.1759882230672 3.8422043324715105e-13
  endloop
endfacet
facet normal -0.8968727415326534 -0.41291206404960984 0.1585020910208865
  outer loop
    vertex 76.82305051189512 1189.4326187639954 3.3134606169937797e-13
    vertex 77.40159179916384 1201.627604105412 35.04265743755858
    vertex 76.82305051189525 1202.1441832793798 33.11475771417872
  endloop
endfacet
facet normal 0.831469612302496 -0.5186694950916587 0.19909856523566616
  outer loop
    vertex 94.72209987485247 1188.1759882230672 3.7787550866141827e-13
    vertex 93.99537923992047 1201.1486957100376 36.829967901267324
    vertex 93.99537923992035 1187.0109956212323 3.4756086897402835e-13
  endloop
endfacet
facet normal 0.831469612302496 -0.5186694950916587 0.19909856523566616
  outer loop
    vertex 93.99537923992047 1201.1486957100376 36.829967901267324
    vertex 94.72209987485247 1188.1759882230672 3.7787550866141827e-13
    vertex 94.7220998748525 1201.627604105412 35.042657437558226
  endloop
endfacet
facet normal 0.9469301294950825 -0.30008959311082306 0.11519360208365408
  outer loop
    vertex 95.72110409989882 1190.7593859470576 2.890465644611595e-13
    vertex 95.30064116212104 1202.1441832793798 33.11475771417818
    vertex 95.30064116212091 1189.4326187639954 1.4663825709249067e-13
  endloop
endfacet
facet normal 0.9469301294950825 -0.30008959311082306 0.11519360208365408
  outer loop
    vertex 95.30064116212104 1202.1441832793798 33.11475771417818
    vertex 95.72110409989882 1190.7593859470576 2.890465644611595e-13
    vertex 95.7211040998988 1202.6895944190514 31.0792556299099
  endloop
endfacet
facet normal -0.19509032201629184 -0.9156419403809954 0.35148200988230555
  outer loop
    vertex 84.75658391480769 1182.9119011939752 4.638844863791292e-13
    vertex 83.47365538598304 1199.5759963629855 42.69936176949591
    vertex 83.47365538598307 1183.18524706071 1.071587263368201e-13
  endloop
endfacet
facet normal -0.19509032201629184 -0.9156419403809954 0.35148200988230555
  outer loop
    vertex 83.47365538598304 1199.5759963629855 42.69936176949591
    vertex 84.75658391480769 1182.9119011939752 4.638844863791292e-13
    vertex 84.75658391480772 1199.4636285846716 43.11872402729673
  endloop
endfacet
facet normal -1.0 7.33771839709895e-15 -2.1401099617942937e-15
  outer loop
    vertex 95.06184583700804 1193.5317131912523 3.623656930074048e-13
    vertex 95.06184583700824 1201.6103592142802 10.407055236082254
    vertex 95.06184583700824 1201.5830998753113 10.200000000000237
  endloop
endfacet
facet normal -1.0 7.33771839709895e-15 -2.1401099617942937e-15
  outer loop
    vertex 95.06184583700824 1201.6103592142802 10.407055236082254
    vertex 95.06184583700804 1193.5317131912523 3.623656930074048e-13
    vertex 95.06184583700805 1203.8292504047456 26.82600158814966
  endloop
endfacet
facet normal -1.0 7.33771839709895e-15 -2.1401099617942937e-15
  outer loop
    vertex 95.06184583700824 1201.6103592142802 10.407055236082254
    vertex 95.06184583700805 1203.8292504047456 26.82600158814966
    vertex 95.06184583700824 1201.6902795522838 10.600000000000236
  endloop
endfacet
facet normal -1.0 7.33771839709895e-15 -2.1401099617942937e-15
  outer loop
    vertex 95.06184583700824 1201.6902795522838 10.600000000000236
    vertex 95.06184583700805 1203.8292504047456 26.82600158814966
    vertex 95.06184583700824 1201.817414450362 10.765685424949472
  endloop
endfacet
facet normal -1.0 7.33771839709895e-15 -2.1401099617942937e-15
  outer loop
    vertex 95.06184583700824 1201.817414450362 10.765685424949472
    vertex 95.06184583700805 1203.8292504047456 26.82600158814966
    vertex 95.06184583700824 1201.9830998753114 10.892820323027784
  endloop
endfacet
facet normal -1.0 7.33771839709895e-15 -2.1401099617942937e-15
  outer loop
    vertex 95.06184583700824 1201.9830998753114 10.892820323027784
    vertex 95.06184583700805 1203.8292504047456 26.82600158814966
    vertex 95.06184583700824 1202.1760446392293 10.972740661031487
  endloop
endfacet
facet normal -1.0 7.33771839709895e-15 -2.1401099617942937e-15
  outer loop
    vertex 95.06184583700824 1202.1760446392293 10.972740661031487
    vertex 95.06184583700805 1203.8292504047456 26.82600158814966
    vertex 95.06184583700824 1202.3830998753112 11.000000000000233
  endloop
endfacet
facet normal -1.0 7.33771839709895e-15 -2.1401099617942937e-15
  outer loop
    vertex 95.06184583700824 1202.3830998753112 11.000000000000233
    vertex 95.06184583700805 1203.8292504047456 26.82600158814966
    vertex 95.06184583700824 1208.069814749704 11.000000000000233
  endloop
endfacet
facet normal -1.0 7.33771839709895e-15 -2.1401099617942937e-15
  outer loop
    vertex 95.06184583700804 1193.5317131912523 3.623656930074048e-13
    vertex 95.06184583700824 1201.6103592142802 9.992944763918223
    vertex 95.06184583700822 1204.2879606937806 2.649392528520348e-13
  endloop
endfacet
facet normal -1.0 7.33771839709895e-15 -2.1401099617942937e-15
  outer loop
    vertex 95.06184583700824 1201.6103592142802 9.992944763918223
    vertex 95.06184583700804 1193.5317131912523 3.623656930074048e-13
    vertex 95.06184583700824 1201.5830998753113 10.200000000000237
  endloop
endfacet
facet normal -0.8314696123025402 -0.5186694950915974 0.19909856523564162
  outer loop
    vertex 78.12831243409596 1201.1486957100374 36.82996790126786
    vertex 77.40159179916375 1188.1759882230672 3.8422043324715105e-13
    vertex 78.12831243409588 1187.0109956212323 1.6919798895287386e-13
  endloop
endfacet
facet normal -0.8314696123025402 -0.5186694950915974 0.19909856523564162
  outer loop
    vertex 77.40159179916375 1188.1759882230672 3.8422043324715105e-13
    vertex 78.12831243409596 1201.1486957100374 36.82996790126786
    vertex 77.40159179916384 1201.627604105412 35.04265743755858
  endloop
endfacet
facet normal 0.32143946530318585 -0.8840354341570837 0.33934940886982323
  outer loop
    vertex 89.88868016065906 1199.7611384971785 42.00840191806588
    vertex 88.65003628803335 1183.1852470607098 3.990252572805275e-13
    vertex 89.88868016065902 1183.6356238315204 2.989164471500771e-13
  endloop
endfacet
facet normal 0.32143946530318585 -0.8840354341570837 0.33934940886982323
  outer loop
    vertex 88.65003628803335 1183.1852470607098 3.990252572805275e-13
    vertex 89.88868016065906 1199.7611384971785 42.00840191806588
    vertex 88.65003628803339 1199.5759963629853 42.69936176949625
  endloop
endfacet
facet normal -0.9978589232385962 -0.06105908128103464 0.02343838531609499
  outer loop
    vertex 76.14739722327015 1203.2545053886108 28.970979189761486
    vertex 76.06184583700806 1193.5317131912523 3.7999048352332916e-13
    vertex 76.14739722327008 1192.1335884179023 2.4674706722294104e-13
  endloop
endfacet
facet normal -0.9978589232385962 -0.06105908128103464 0.02343838531609499
  outer loop
    vertex 76.06184583700806 1193.5317131912523 3.7999048352332916e-13
    vertex 76.14739722327015 1203.2545053886108 28.970979189761486
    vertex 76.06184583700808 1203.8292504047456 26.826001588149325
  endloop
endfacet
facet normal -0.442288690218878 -0.8373028365538592 0.321410445386162
  outer loop
    vertex 82.23501151335736 1199.7611384971785 42.00840191806554
    vertex 81.0618458370082 1184.2553254349907 5.174638495475392e-13
    vertex 82.23501151335739 1183.6356238315207 1.127986593019159e-14
  endloop
endfacet
facet normal -0.442288690218878 -0.8373028365538592 0.321410445386162
  outer loop
    vertex 81.0618458370082 1184.2553254349907 5.174638495475392e-13
    vertex 82.23501151335736 1199.7611384971785 42.00840191806554
    vertex 81.0618458370084 1200.0158871540038 41.057666987633915
  endloop
endfacet
facet normal -0.32143946530318623 -0.884035434157085 0.33934940886982007
  outer loop
    vertex 83.47365538598307 1183.18524706071 1.071587263368201e-13
    vertex 82.23501151335736 1199.7611384971785 42.00840191806554
    vertex 82.23501151335739 1183.6356238315207 1.127986593019159e-14
  endloop
endfacet
facet normal -0.32143946530318623 -0.884035434157085 0.33934940886982007
  outer loop
    vertex 82.23501151335736 1199.7611384971785 42.00840191806554
    vertex 83.47365538598307 1183.18524706071 1.071587263368201e-13
    vertex 83.47365538598304 1199.5759963629855 42.69936176949591
  endloop
endfacet
facet normal 0.7518398074790336 -0.6155523472702081 0.2362884077986621
  outer loop
    vertex 93.99537923992035 1187.0109956212323 3.4756086897402835e-13
    vertex 93.13291364887358 1200.7156523486794 38.446107727736006
    vertex 93.13291364887354 1185.9575743049047 3.5672576004230904e-13
  endloop
endfacet
facet normal 0.7518398074790336 -0.6155523472702081 0.2362884077986621
  outer loop
    vertex 93.13291364887358 1200.7156523486794 38.446107727736006
    vertex 93.99537923992035 1187.0109956212323 3.4756086897402835e-13
    vertex 93.99537923992047 1201.1486957100376 36.829967901267324
  endloop
endfacet
facet normal 0.0 0.0 -1.0
  outer loop
    vertex 96.06184583700824 1208.069814749704 11.000000000000233
    vertex 95.06184583700824 1202.3830998753112 11.000000000000233
    vertex 95.06184583700824 1208.069814749704 11.000000000000233
  endloop
endfacet
facet normal 0.0 0.0 -1.0
  outer loop
    vertex 95.06184583700824 1202.3830998753112 11.000000000000233
    vertex 96.06184583700824 1208.069814749704 11.000000000000233
    vertex 96.06184583700824 1202.3830998753112 11.000000000000233
  endloop
endfacet
facet normal -0.44228869021888 0.8373028365538573 -0.3214104453861638
  outer loop
    vertex 89.50599672829397 1200.1679496879353 40.490161885073995
    vertex 90.56184583700826 1185.1829642106168 5.809130954048669e-13
    vertex 89.50599672829394 1184.6252327674938 2.1290746943236625e-13
  endloop
endfacet
facet normal -0.44228869021888 0.8373028365538573 -0.3214104453861638
  outer loop
    vertex 90.56184583700826 1185.1829642106168 5.809130954048669e-13
    vertex 89.50599672829397 1200.1679496879353 40.490161885073995
    vertex 90.56184583700825 1200.397223479078 39.634500447685504
  endloop
endfacet
facet normal -0.6593458151000579 0.7019029281238074 -0.2694352901927768
  outer loop
    vertex 91.5406986980865 1185.8835450635088 5.795031121635929e-13
    vertex 92.42580686768716 1201.0270121542862 37.28409711377713
    vertex 92.42580686768711 1186.7149881935393 4.1735503941708883e-13
  endloop
endfacet
facet normal -0.6593458151000579 0.7019029281238074 -0.2694352901927768
  outer loop
    vertex 92.42580686768716 1201.0270121542862 37.28409711377713
    vertex 91.5406986980865 1185.8835450635088 5.795031121635929e-13
    vertex 91.54069869808694 1200.6852202024565 38.559682043622985
  endloop
endfacet
facet normal -4.3700836348193745e-16 0.38268343236525854 -0.9238795325112168
  outer loop
    vertex 96.06184583700824 1202.1760446392293 10.972740661031487
    vertex 95.06184583700824 1201.9830998753114 10.892820323027784
    vertex 95.06184583700824 1202.1760446392293 10.972740661031487
  endloop
endfacet
facet normal -4.3700836348193745e-16 0.38268343236525854 -0.9238795325112168
  outer loop
    vertex 95.06184583700824 1201.9830998753114 10.892820323027784
    vertex 96.06184583700824 1202.1760446392293 10.972740661031487
    vertex 96.06184583700824 1201.9830998753114 10.892820323027784
  endloop
endfacet
facet normal -0.06540312923007527 -0.9315815591411376 0.3576006562565025
  outer loop
    vertex 86.06184583700814 1182.8202632548823 5.851430451286888e-13
    vertex 84.75658391480772 1199.4636285846716 43.11872402729673
    vertex 84.75658391480769 1182.9119011939752 4.638844863791292e-13
  endloop
endfacet
facet normal -0.06540312923007527 -0.9315815591411376 0.3576006562565025
  outer loop
    vertex 84.75658391480772 1199.4636285846716 43.11872402729673
    vertex 86.06184583700814 1182.8202632548823 5.851430451286888e-13
    vertex 86.06184583700818 1199.4259578060785 43.25931328696733
  endloop
endfacet
facet normal -0.9469301294950582 0.3000895931108891 -0.11519360208368068
  outer loop
    vertex 94.37676162960965 1202.3126899919164 32.485882101575456
    vertex 94.75517827360979 1191.036618671477 2.8552160635797463e-13
    vertex 94.3767616296096 1189.842528206721 3.1160629632154267e-13
  endloop
endfacet
facet normal -0.9469301294950582 0.3000895931108891 -0.11519360208368068
  outer loop
    vertex 94.75517827360979 1191.036618671477 2.8552160635797463e-13
    vertex 94.37676162960965 1202.3126899919164 32.485882101575456
    vertex 94.75517827360983 1202.803560017621 30.653930225733543
  endloop
endfacet
facet normal 0.4422886902189626 -0.8373028365538194 0.3214104453861486
  outer loop
    vertex 91.06184583700815 1184.2553254349903 4.4696468748384173e-13
    vertex 89.88868016065906 1199.7611384971785 42.00840191806588
    vertex 89.88868016065902 1183.6356238315204 2.989164471500771e-13
  endloop
endfacet
facet normal 0.4422886902189626 -0.8373028365538194 0.3214104453861486
  outer loop
    vertex 89.88868016065906 1199.7611384971785 42.00840191806588
    vertex 91.06184583700815 1184.2553254349903 4.4696468748384173e-13
    vertex 91.0618458370081 1200.0158871540036 41.05766698763408
  endloop
endfacet
facet normal 0.0654031292301646 -0.9315815591411323 0.3576006562565001
  outer loop
    vertex 87.36710775920861 1199.4636285846718 43.11872402729655
    vertex 86.06184583700814 1182.8202632548823 5.851430451286888e-13
    vertex 87.36710775920857 1182.9119011939754 5.033640171347997e-13
  endloop
endfacet
facet normal 0.0654031292301646 -0.9315815591411323 0.3576006562565001
  outer loop
    vertex 86.06184583700814 1182.8202632548823 5.851430451286888e-13
    vertex 87.36710775920861 1199.4636285846718 43.11872402729655
    vertex 86.06184583700818 1199.4259578060785 43.25931328696733
  endloop
endfacet
facet normal -4.836423059434185e-16 0.1305261922200425 -0.9914448613738117
  outer loop
    vertex 96.06184583700824 1202.3830998753112 11.000000000000233
    vertex 95.06184583700824 1202.1760446392293 10.972740661031487
    vertex 95.06184583700824 1202.3830998753112 11.000000000000233
  endloop
endfacet
facet normal -4.836423059434185e-16 0.1305261922200425 -0.9914448613738117
  outer loop
    vertex 95.06184583700824 1202.1760446392293 10.972740661031487
    vertex 96.06184583700824 1202.3830998753112 11.000000000000233
    vertex 96.06184583700824 1202.1760446392293 10.972740661031487
  endloop
endfacet
facet normal 0.659345815100158 -0.701902928123726 0.26943529019274365
  outer loop
    vertex 93.13291364887358 1200.7156523486794 38.446107727736006
    vertex 92.14946012709535 1185.0337486048707 4.822142685156905e-13
    vertex 93.13291364887354 1185.9575743049047 3.5672576004230904e-13
  endloop
endfacet
facet normal 0.659345815100158 -0.701902928123726 0.26943529019274365
  outer loop
    vertex 92.14946012709535 1185.0337486048707 4.822142685156905e-13
    vertex 93.13291364887358 1200.7156523486794 38.446107727736006
    vertex 92.14946012709547 1200.3358835133133 39.86342431645389
  endloop
endfacet
facet normal 0.9807852804032346 -0.18213250603327455 0.06991411867704377
  outer loop
    vertex 95.97629445074618 1192.1335884179023 2.305322599482906e-13
    vertex 95.7211040998988 1202.6895944190514 31.0792556299099
    vertex 95.72110409989882 1190.7593859470576 2.890465644611595e-13
  endloop
endfacet
facet normal 0.9807852804032346 -0.18213250603327455 0.06991411867704377
  outer loop
    vertex 95.7211040998988 1202.6895944190514 31.0792556299099
    vertex 95.97629445074618 1192.1335884179023 2.305322599482906e-13
    vertex 95.97629445074621 1203.2545053886108 28.970979189761472
  endloop
endfacet
facet normal -0.9807852804032575 -0.18213250603316652 0.06991411867700568
  outer loop
    vertex 76.40258757411743 1202.6895944190514 31.07925562990991
    vertex 76.14739722327008 1192.1335884179023 2.4674706722294104e-13
    vertex 76.40258757411729 1190.7593859470576 2.9327651418498134e-13
  endloop
endfacet
facet normal -0.9807852804032575 -0.18213250603316652 0.06991411867700568
  outer loop
    vertex 76.14739722327008 1192.1335884179023 2.4674706722294104e-13
    vertex 76.40258757411743 1202.6895944190514 31.07925562990991
    vertex 76.14739722327015 1203.2545053886108 28.970979189761486
  endloop
endfacet
facet normal -0.5555702330196937 -0.7762437552728155 0.2979720600700685
  outer loop
    vertex 81.0618458370082 1184.2553254349907 5.174638495475392e-13
    vertex 79.97423154692106 1200.3358835133133 39.863424316453376
    vertex 79.974231546921 1185.0337486048709 3.468558773533914e-13
  endloop
endfacet
facet normal -0.5555702330196937 -0.7762437552728155 0.2979720600700685
  outer loop
    vertex 79.97423154692106 1200.3358835133133 39.863424316453376
    vertex 81.0618458370082 1184.2553254349907 5.174638495475392e-13
    vertex 81.0618458370084 1200.0158871540038 41.057666987633915
  endloop
endfacet
facet normal -1.0 1.9516947216423424e-15 9.277082396533684e-17
  outer loop
    vertex 76.06184583700808 1203.8292504047456 26.826001588149325
    vertex 76.06184583700808 1209.464341595831 2.303138835913864e-13
    vertex 76.06184583700806 1193.5317131912523 3.7999048352332916e-13
  endloop
endfacet
facet normal -1.0 1.9516947216423424e-15 9.277082396533684e-17
  outer loop
    vertex 76.06184583700808 1209.464341595831 2.303138835913864e-13
    vertex 76.06184583700808 1203.8292504047456 26.826001588149325
    vertex 76.06184583700808 1210.6153320777996 1.5000000000002218
  endloop
endfacet
facet normal -1.0 1.9516947216423424e-15 9.277082396533684e-17
  outer loop
    vertex 76.06184583700808 1209.464341595831 2.303138835913864e-13
    vertex 76.06184583700808 1210.6153320777996 1.5000000000002218
    vertex 76.06184583700808 1209.8525701634849 0.051111260566624635
  endloop
endfacet
facet normal -1.0 1.9516947216423424e-15 9.277082396533684e-17
  outer loop
    vertex 76.06184583700808 1209.8525701634849 0.051111260566624635
    vertex 76.06184583700808 1210.6153320777996 1.5000000000002218
    vertex 76.06184583700808 1210.1869511538453 0.20096189432356656
  endloop
endfacet
facet normal -1.0 1.9516947216423424e-15 9.277082396533684e-17
  outer loop
    vertex 76.06184583700808 1210.1869511538453 0.20096189432356656
    vertex 76.06184583700808 1210.6153320777996 1.5000000000002218
    vertex 76.06184583700808 1210.44469705501 0.4393398282204014
  endloop
endfacet
facet normal -1.0 1.9516947216423424e-15 9.277082396533684e-17
  outer loop
    vertex 76.06184583700808 1210.44469705501 0.4393398282204014
    vertex 76.06184583700808 1210.6153320777996 1.5000000000002218
    vertex 76.06184583700808 1210.6082429097598 0.7500000000002214
  endloop
endfacet
facet normal -1.0 1.9516947216423424e-15 9.277082396533684e-17
  outer loop
    vertex 76.06184583700808 1210.6082429097598 0.7500000000002214
    vertex 76.06184583700808 1210.6153320777996 1.5000000000002218
    vertex 76.06184583700808 1210.666443338366 1.1117714323464398
  endloop
endfacet
facet normal 0.5555702330196332 -0.776243755272854 0.297972060070081
  outer loop
    vertex 92.14946012709535 1185.0337486048707 4.822142685156905e-13
    vertex 91.0618458370081 1200.0158871540036 41.05766698763408
    vertex 91.06184583700815 1184.2553254349903 4.4696468748384173e-13
  endloop
endfacet
facet normal 0.5555702330196332 -0.776243755272854 0.297972060070081
  outer loop
    vertex 91.0618458370081 1200.0158871540036 41.05766698763408
    vertex 92.14946012709535 1185.0337486048707 4.822142685156905e-13
    vertex 92.14946012709547 1200.3358835133133 39.86342431645389
  endloop
endfacet
facet normal -0.7518398074789514 -0.6155523472702961 0.23628840779869525
  outer loop
    vertex 78.99077802514277 1200.7156523486794 38.44610772773584
    vertex 78.12831243409588 1187.0109956212323 1.6919798895287386e-13
    vertex 78.99077802514276 1185.9575743049047 1.7836288002115452e-13
  endloop
endfacet
facet normal -0.7518398074789514 -0.6155523472702961 0.23628840779869525
  outer loop
    vertex 78.12831243409588 1187.0109956212323 1.6919798895287386e-13
    vertex 78.99077802514277 1200.7156523486794 38.44610772773584
    vertex 78.12831243409596 1201.1486957100374 36.82996790126786
  endloop
endfacet
endsolid bobby car
