<?xml version="1.0" encoding="UTF-8" standalone="no"?>
<svg
   xmlns:dc="http://purl.org/dc/elements/1.1/"
   xmlns:cc="http://creativecommons.org/ns#"
   xmlns:rdf="http://www.w3.org/1999/02/22-rdf-syntax-ns#"
   xmlns:svg="http://www.w3.org/2000/svg"
   xmlns="http://www.w3.org/2000/svg"
   xmlns:sodipodi="http://sodipodi.sourceforge.net/DTD/sodipodi-0.dtd"
   xmlns:inkscape="http://www.inkscape.org/namespaces/inkscape"
   version="1.0"
   width="1848.619pt"
   height="348.54001pt"
   viewBox="0 0 1848.619 348.54001"
   preserveAspectRatio="xMidYMid meet"
   id="svg32"
   sodipodi:docname="bobby car.svg"
   inkscape:version="1.0.2-2 (e86c870879, 2021-01-15)">
  <defs
     id="defs36" />
  <sodipodi:namedview
     pagecolor="#ffffff"
     bordercolor="#666666"
     borderopacity="1"
     objecttolerance="10"
     gridtolerance="10"
     guidetolerance="10"
     inkscape:pageopacity="0"
     inkscape:pageshadow="2"
     inkscape:window-width="1920"
     inkscape:window-height="1018"
     id="namedview34"
     showgrid="false"
     inkscape:zoom="0.38313162"
     inkscape:cx="1322"
     inkscape:cy="276.66667"
     inkscape:window-x="-6"
     inkscape:window-y="-6"
     inkscape:window-maximized="1"
     inkscape:current-layer="svg32" />
  <metadata
     id="metadata2">
Created by potrace 1.16, written by Peter Selinger 2001-2019
<rdf:RDF>
  <cc:Work
     rdf:about="">
    <dc:format>image/svg+xml</dc:format>
    <dc:type
       rdf:resource="http://purl.org/dc/dcmitype/StillImage" />
    <dc:title></dc:title>
  </cc:Work>
</rdf:RDF>
</metadata>
  <g
     id="g883"
     transform="matrix(1.3219137,0,0,1.3219137,-656.34523,-116.15702)"
     style="stroke-width:0.756479">
    <path
       d="m 856,90.9 c -1.9,1 -4.4,3 -5.5,4.5 -1.9,2.7 -2,4.2 -2.3,61.9 -0.3,71.1 0.6,94.3 4.1,104.4 6.4,18.6 21.3,31.3 42.3,36.4 11.6,2.8 32.2,3 43.4,0.4 23.1,-5.4 39,-19.8 44.8,-40.8 2.6,-9.4 2.5,-59.3 -0.2,-68.7 -5.5,-19.8 -20.1,-34.3 -40.1,-39.5 -8.5,-2.3 -24.6,-3 -34.4,-1.6 -7.4,1.1 -20.3,4.1 -24.5,5.7 -1.5,0.6 -1.6,-1.8 -1.6,-27 0,-31.2 -0.2,-32.1 -7,-35.6 -5.1,-2.6 -14.2,-2.7 -19,-0.1 z m 75.7,87.6 c 7.6,2.3 13,6.7 16.1,13.3 2.7,5.7 2.7,5.7 2.7,30.7 0,28.6 -0.6,32.1 -6.7,39 -5.9,6.7 -12.4,8.9 -26.8,8.9 -14.2,0 -20.7,-2.1 -26.9,-8.9 -6.9,-7.5 -7.5,-11.1 -7.6,-47.5 v -31.4 l 4.5,-1.3 c 14.9,-4.2 35.6,-5.5 44.7,-2.8 z"
       id="path4"
       style="fill:#000000;stroke:none;stroke-width:0.0756479" />
    <path
       d="m 1025.2,90.7 c -1.8,0.9 -4.2,2.8 -5.3,4.4 -1.9,2.8 -2,4.1 -1.7,80.6 0.3,72.1 0.5,78.2 2.2,83.3 6.8,20.7 22.4,34.5 44.6,39.5 10.2,2.3 31.9,2.3 42,0 22.1,-5 38.1,-19.2 44.5,-39.5 2.6,-8 3.3,-51.8 1.2,-64.3 -3.8,-21.9 -17.2,-37.5 -38.1,-44.4 -7.4,-2.5 -9.4,-2.7 -24.1,-2.7 -14.3,0.1 -17,0.3 -26,2.8 -5.5,1.5 -10.7,2.8 -11.5,2.9 -1.3,0.2 -1.5,-3.6 -1.8,-27.7 -0.3,-31.1 -0.4,-31.6 -7.6,-35 -4.4,-2.1 -14.1,-2.1 -18.4,0.1 z m 79.6,89.2 c 7,3.1 11.6,8.6 13.7,16.4 1.4,5.2 1.6,10.2 1.3,30.2 -0.3,27.3 -0.9,29.8 -8.5,36.6 -6,5.4 -12.7,7.4 -25.3,7.4 -16.6,0 -26.6,-4.9 -31.2,-15.3 -2.7,-5.9 -3.9,-23.9 -3.6,-50.7 l 0.3,-21.9 4.5,-1.3 c 10.4,-2.9 20.9,-4.2 32,-4 9.5,0.3 12.4,0.7 16.8,2.6 z"
       id="path6"
       style="fill:#000000;stroke:none;stroke-width:0.0756479" />
    <path
       d="m 1495.4,98.1 c -23.4,3.9 -42.4,16.9 -51.3,35 -2.3,4.6 -4.8,11.5 -5.6,15.4 -3.3,16.4 -4.5,52.9 -2.5,79.5 2,26.8 6.3,38.3 19.5,51.6 12.5,12.5 25.6,18.2 47.6,20.5 20.5,2.1 44.3,-0.9 65.3,-8.3 13.9,-4.9 18.2,-10.7 15.5,-21.3 -1.6,-6.4 -6.4,-11.2 -12.2,-12 -3.5,-0.6 -6.2,0 -13.3,2.5 -18.5,6.7 -25.9,8.2 -39.9,8.4 -14,0.1 -20.5,-1 -29.2,-5.1 -7.3,-3.4 -13.8,-10.9 -16.2,-18.8 -4,-12.9 -5.1,-57.8 -2,-83.5 1.8,-14.8 7.4,-23.8 18.3,-28.9 9,-4.3 16.4,-5.4 31.8,-4.8 14.2,0.5 19.4,1.6 34.6,7.2 11,4.2 16.5,4.5 21.3,1.2 6.8,-4.5 9.7,-16.7 5.6,-23.1 -3.5,-5.2 -22.9,-12.2 -42.2,-15.1 -10.8,-1.6 -36.5,-1.8 -45.1,-0.4 z"
       id="path10"
       style="fill:#000000;stroke:none;stroke-width:0.0756479" />
    <path
       d="m 537.5,99 c -15.4,2.5 -27.2,11.6 -32.8,25.2 -2.2,5.3 -2.2,5.6 -2.2,78.8 v 73.5 l 2.8,5.7 c 3.2,6.6 7,10.1 14.7,13.7 l 5.5,2.6 H 563 c 31.8,0 38.7,-0.3 45.2,-1.7 20.2,-4.5 33.8,-13.9 41.7,-28.7 4.4,-8.3 6.1,-16 6.1,-27.6 0,-11.4 -1.6,-18.2 -6.1,-26.1 -3.4,-6 -12.5,-14.9 -19.2,-18.8 l -4.7,-2.8 4.3,-3.4 c 5.2,-4.1 9.8,-10.3 13.4,-18.1 3.2,-7 4.3,-21.1 2.3,-30.2 -4.3,-19.9 -19.6,-34.5 -42.1,-40.2 -7.3,-1.8 -11.8,-2.2 -34.9,-2.4 -14.6,-0.2 -28.7,0 -31.5,0.5 z m 59.5,32.5 c 21.1,6.7 21.5,38.9 0.6,46.2 -4.4,1.6 -8.9,1.8 -33.1,1.8 h -28 l -0.3,-19.6 c -0.3,-22.9 0.4,-26.4 5.8,-29.2 3.2,-1.6 5.8,-1.8 26.5,-1.4 18.3,0.3 24.1,0.8 28.5,2.2 z m 6.6,81.8 c 11.5,3.8 17.3,11.3 18.2,23.6 1,14 -4.6,23.5 -16.4,28.2 -5.7,2.3 -6.8,2.3 -37.4,2.4 h -31.5 l -0.3,-27 c -0.1,-14.8 0,-27.6 0.3,-28.3 0.8,-2.2 60.1,-1.2 67.1,1.1 z"
       id="path12"
       style="fill:#000000;stroke:none;stroke-width:0.0756479" />
    <path
       d="m 730.3,148.4 c -19.2,3.7 -32.1,11.8 -41.4,26 -5.9,8.9 -7.9,16.6 -8.9,34.4 -0.9,16 0.1,40.2 1.9,48.5 4.5,19.6 21.4,35.4 43.7,40.8 11.2,2.8 32,3 43.4,0.6 23.5,-5.1 40.7,-21.6 45.7,-43.9 2.4,-10.5 2.4,-51.2 0,-61.7 -2.7,-11.9 -6.7,-19.4 -15,-27.5 -12.9,-12.8 -25.3,-17.5 -48.2,-18.1 -9.4,-0.3 -16.4,0 -21.2,0.9 z m 36.5,31.6 c 6.5,2.8 11.7,8.7 13.8,15.5 2.1,6.7 3,35.1 1.5,47 -1.5,12.4 -4.8,18.9 -11.9,23.1 -13.8,8.3 -38.8,6.6 -48.4,-3.3 -2.1,-2.1 -4.4,-5.5 -5.3,-7.5 -3.9,-9.5 -4.5,-46.7 -0.9,-58.8 4.1,-14 13.7,-19.2 34.4,-18.6 9.4,0.2 12.5,0.7 16.8,2.6 z"
       id="path14"
       style="fill:#000000;stroke:none;stroke-width:0.0756479" />
    <path
       d="m 1658,148.1 c -28.6,3.5 -36.7,7.9 -35.6,19.6 0.6,6.3 2.9,10.6 7,12.8 4.2,2.3 12.8,1.6 27.6,-2 14.5,-3.5 30.5,-4 38.7,-1.2 10.5,3.7 16.4,10.2 17.9,19.8 0.7,4.1 0.6,4.2 -1.7,3.6 -14.2,-3.4 -48.8,-3.3 -62.1,0.2 -25.4,6.7 -36.8,21.3 -36.8,47.2 0,20.1 9.7,35.9 27.3,44.3 9.2,4.4 16.9,6.4 30.2,7.7 11.8,1.2 27.4,0 36.7,-2.7 21.1,-6.3 35.2,-20.9 39.2,-40.6 2.2,-10.6 2.2,-56.1 0.1,-66.3 -4.3,-20.3 -19.3,-35 -42,-41.1 -7.2,-1.9 -35.2,-2.7 -46.5,-1.3 z m 51.5,77.8 5,0.6 -0.1,10.1 c -0.2,17.1 -4.9,28 -14.2,32.8 -4.8,2.5 -14.9,3.9 -23,3.3 -19.8,-1.6 -28.9,-8.6 -30,-23 -1,-13.2 6.8,-21.9 22.3,-24.7 5,-0.9 30.6,-0.4 40,0.9 z"
       id="path16"
       style="fill:#000000;stroke:none;stroke-width:0.0756479" />
    <path
       d="m 1831.7,148 c -21.1,3.6 -36.6,14.3 -44.4,30.7 -5.7,11.9 -6.2,17.4 -6.3,67.7 v 44.8 l 3.3,3.3 c 7,7 19.3,7.1 26.3,0.1 l 3.2,-3.2 0.5,-44.9 c 0.5,-48.4 0.8,-51.5 5.9,-59.2 1.5,-2.3 4.7,-5 7.9,-6.8 4.7,-2.5 6.7,-3 14.9,-3.3 8,-0.4 11.2,0 19.4,2.2 11.6,3.1 14,3.2 18.6,0.7 6.9,-3.7 10.2,-15.5 6.3,-22.2 -2.4,-4.1 -10.1,-7.5 -20.7,-9.4 -9.3,-1.6 -26.8,-1.8 -34.9,-0.5 z"
       id="path18"
       style="fill:#000000;stroke:none;stroke-width:0.0756479" />
    <path
       d="m 1179.5,149.9 c -9.6,4.3 -9.9,10.4 -1.1,30.8 3.5,8.1 13.4,31.2 22,51.2 8.6,20 17.1,38.4 18.8,41 1.7,2.5 5.3,6.7 8.1,9.3 l 4.9,4.6 -5,10.5 c -5.4,11.3 -10.8,18.2 -16,20.4 -1.9,0.8 -6.9,1.8 -11.3,2.3 -9.2,1.1 -13.3,2.9 -15.4,7 -2.2,4.2 -1.9,12.8 0.5,16.7 3.2,5.3 7.2,6.8 17.5,6.7 20.6,-0.4 36.9,-8.8 47.7,-24.7 7.1,-10.4 12,-22.6 37.2,-91.9 26,-71.4 26.8,-74.2 23,-79.7 -5.6,-8 -24.6,-7.8 -30,0.4 -0.9,1.4 -8.8,22.3 -17.6,46.3 -8.7,24 -16.3,44.8 -16.9,46.2 l -1.1,2.5 -1.6,-3 c -0.8,-1.7 -3.7,-8.6 -6.4,-15.3 -6.1,-15.6 -31.4,-73.9 -33.5,-77 -3.6,-5.6 -16,-7.9 -23.8,-4.3 z"
       id="path20"
       style="fill:#000000;stroke:none;stroke-width:0.0756479" />
    <path
       d="m 1321.9,215.9 c -5.6,5.7 -3.1,16.8 4.3,18.6 1.2,0.3 20.2,0.4 42.1,0.3 l 39.9,-0.3 2.9,-3.3 c 4.4,-5 3.8,-12.2 -1.5,-16.4 -1.9,-1.6 -5.8,-1.8 -43.4,-1.8 h -41.4 z"
       id="path22"
       style="fill:#000000;stroke:none;stroke-width:0.0756479" />
  </g>
</svg>
